<svg width="383" height="119" viewBox="0 0 383 119" fill="none" xmlns="http://www.w3.org/2000/svg">
<path d="M78.3013 118.178H5.55475C2.49711 118.178 2.58292e-05 115.681 2.58292e-05 112.623V41.9407C-0.0254546 18.8045 18.8046 0 41.9153 0C65.026 0 83.856 18.8045 83.856 41.9407V112.623C83.856 115.681 81.3589 118.178 78.3013 118.178ZM41.9153 2.85381C20.3589 2.85381 2.82835 20.3843 2.82835 41.9407V112.623C2.82835 114.127 4.05141 115.324 5.52928 115.324H78.2758C79.7791 115.324 80.9767 114.101 80.9767 112.623V41.9407C80.9767 20.3843 63.4462 2.85381 41.8898 2.85381H41.9153Z" fill="white"/>
<path d="M77.8957 23.3144L38.6304 17.5813C38.6814 16.8678 38.7068 16.1544 38.7068 15.4409C38.7068 10.6251 37.7131 6.03865 35.9295 1.85986C34.9612 1.98727 33.993 2.16563 33.0502 2.39495C34.8593 6.3699 35.853 10.8035 35.853 15.4409C35.853 33.0479 21.5076 47.3934 3.90062 47.3934C3.05976 47.3934 2.24439 47.3679 1.42902 47.2914V50.1707C2.24439 50.2472 3.05976 50.2727 3.90062 50.2727C4.79243 50.2727 5.63329 50.2217 6.49962 50.1707L7.28951 65.6373L7.36594 66.9623L10.2198 66.8859V66.2489L9.32794 49.8395C12.6659 49.3044 15.8764 48.3107 18.8321 46.8838L32.0565 72.4151L32.3113 72.9247L34.8848 71.7017L34.1459 70.3003L21.3292 45.5588C25.7883 42.9598 29.6358 39.418 32.5406 35.1882L38.9616 40.0295L40.3121 41.0487L42.1977 38.8829L39.7006 36.9974L34.0694 32.7421C36.2098 29.022 37.6876 24.8687 38.3246 20.4606L79.3226 26.423L80.1125 26.5249L79.5519 23.8749L77.8702 23.3144H77.8957Z" fill="white"/>
<path d="M67.4464 38.0176L49.8649 34.7051C49.3553 34.6032 48.8202 34.5522 48.2851 34.5268L45.6606 30.8321C44.8198 29.6345 43.3419 29.1759 41.966 29.609C40.5646 30.0677 39.6727 31.2907 39.6727 32.7686L39.7237 36.9729V38.7565C39.4434 39.1642 39.1886 39.5719 38.9848 40.005C38.3478 41.2026 37.9656 42.4766 37.8891 43.8016L36.4367 63.1158C36.2074 65.9696 35.494 68.4157 34.1945 70.2503C33.6084 71.0911 32.9204 71.8046 32.0796 72.3906C30.7546 73.3334 29.1238 73.945 27.1619 74.1233C26.7032 74.1743 26.2191 74.1998 25.7095 74.1998V77.0536C27.9263 77.0536 29.8883 76.6714 31.57 75.9324C36.2074 73.945 38.8574 69.384 39.316 63.2941L40.7939 44.0055C40.8958 42.604 41.4309 41.2536 42.3482 40.0815L42.6539 39.6993L42.603 32.7431C42.603 32.4628 42.7813 32.3354 42.9087 32.31C43.0361 32.259 43.2655 32.259 43.4184 32.4883L46.9092 37.406H47.6736C48.2851 37.3551 48.8457 37.406 49.3808 37.4825L66.9623 40.7949C69.867 41.3555 71.9564 43.8781 71.9564 46.8338C71.9564 47.9294 71.0646 48.8467 69.9689 48.8467H62.2229L61.8152 49.2544C60.4138 50.6559 58.5282 51.4457 56.5408 51.4712H52.2601V69.9445H55.1139V54.3505H56.5408C59.0888 54.325 61.484 53.3823 63.395 51.7006H69.9689C72.6444 51.7006 74.8102 49.5092 74.8102 46.8338C74.8102 42.5021 71.7271 38.782 67.4719 37.9921L67.4464 38.0176Z" fill="white"/>
<path d="M27.1364 74.1487C22.6773 72.416 17.9889 70.2756 13.4024 67.6512C13.0712 67.4473 12.7399 67.2944 12.4087 67.1161C12.3068 67.0651 12.2048 67.0142 12.1284 66.9887C11.8481 66.8613 11.5678 66.7339 11.2621 66.6065C11.1347 66.5555 11.0073 66.5045 10.8799 66.4791C10.6505 66.4026 10.4467 66.3262 10.2429 66.2497H10.1919C10.039 66.1988 9.91161 66.1733 9.75873 66.1223C9.60585 66.0714 9.47844 66.0459 9.32556 66.0204C8.96883 65.944 8.63759 65.8675 8.30635 65.8166C8.22991 65.8166 8.12798 65.7911 8.07702 65.7656C7.8477 65.7146 7.61837 65.6892 7.38905 65.6637C7.38905 65.6637 7.31261 65.6637 7.28713 65.6637C6.72656 65.6127 6.16599 65.5618 5.60542 65.5618C4.204 65.5618 2.80258 65.7401 1.42664 66.0969V69.0526C2.82806 68.6704 4.22948 68.4411 5.60542 68.4411C6.08955 68.4411 6.59916 68.4665 7.08329 68.5175C7.26165 68.543 7.44001 68.5685 7.64385 68.5939H7.74577L7.82221 68.6194C8.1025 68.6704 8.38279 68.7213 8.66307 68.7978H8.71403C8.71403 68.7978 8.91788 68.8487 8.99432 68.8742C9.12172 68.9252 9.2746 68.9507 9.402 69.0016C9.58037 69.0526 9.75873 69.129 9.93709 69.18L10.0135 69.2309C10.0135 69.2309 10.1409 69.2819 10.2429 69.3074C10.4722 69.4093 10.7015 69.5112 10.9563 69.6132C11.0328 69.6386 11.1347 69.6896 11.1856 69.7151C11.5169 69.868 11.7717 69.9954 12.0265 70.1482C16.1543 72.5179 20.6134 74.6328 25.3273 76.5183C24.9705 76.7477 24.6138 76.977 24.2571 77.2063L23.1614 77.9198C22.4225 78.3784 21.6836 78.8625 20.9446 79.3467L20.5879 79.576L19.9509 79.9837C18.9062 80.6462 17.8615 81.3341 16.7913 82.0476L16.0269 82.5572L15.6192 82.812C14.9058 83.2961 14.1923 83.7548 13.4534 84.2644C12.9183 84.6211 12.3577 84.9778 11.8226 85.36L10.0135 86.5576L8.15346 87.8062C5.98763 89.2331 3.77083 90.7619 1.45211 92.2907V95.7561C1.75788 95.5267 2.08912 95.3229 2.42037 95.1191C4.94293 93.4119 7.36356 91.7811 9.73324 90.1758C10.3703 89.7682 10.9818 89.335 11.5933 88.9273C12.2049 88.5196 12.7909 88.1374 13.4024 87.7297C13.9375 87.3475 14.4981 86.9908 15.0332 86.6341C15.7721 86.1499 16.4855 85.6658 17.199 85.2072C17.5812 84.9524 17.9889 84.6721 18.3711 84.4173C19.4413 83.7293 20.4605 83.0413 21.5052 82.3788C21.8364 82.1495 22.1422 81.9457 22.4989 81.7163C23.2379 81.2577 23.9768 80.7736 24.7157 80.2894C25.0724 80.0601 25.4547 79.8308 25.8114 79.6015C26.5248 79.1428 27.2128 78.7097 27.9008 78.251C28.232 78.0472 28.5378 77.8433 28.869 77.6395C29.7863 77.0789 30.6781 76.5183 31.5699 75.9578C31.6464 75.9068 31.7228 75.8559 31.7993 75.8304C30.2959 75.3208 28.7671 74.7602 27.1873 74.1487H27.1364Z" fill="white"/>
<path d="M80.951 64.2369C78.7597 63.6253 76.4919 63.3196 74.1477 63.3196C68.4911 63.3196 62.2484 65.0268 55.0884 68.2373C54.1711 68.645 53.2028 69.1036 52.2346 69.5623C39.0612 75.9579 22.8047 86.9654 1.42664 101.336V104.776C1.78336 104.547 2.14008 104.292 2.49681 104.063C3.18478 103.63 3.84727 103.171 4.50976 102.712C38.3477 79.9328 58.7575 66.1734 74.1477 66.1734C76.2626 66.1734 78.2246 66.4282 80.1356 66.9378H80.2121C80.951 67.1671 81.7154 67.4219 82.4543 67.7277V64.67C81.9447 64.4917 81.4606 64.3643 80.9764 64.2114L80.951 64.2369Z" fill="white"/>
<path d="M82.4288 98.7114V104.139C80.8491 101.922 79.4476 99.2719 77.1544 96.1124C72.8227 90.1499 67.7012 85.487 60.108 85.487C59.6494 85.487 59.1652 85.5125 58.6556 85.538C53.3812 85.9457 47.4697 89.8442 46.5779 95.3479C47.8774 94.8893 49.1769 94.6855 50.4 94.6855C55.7254 94.6855 59.7768 98.7623 57.9931 105.056C56.821 109.184 53.8398 110.662 50.4 110.662C45.8135 110.662 40.4117 108.114 37.2521 105.871C35.0098 104.266 33.1243 102.075 30.7546 100.75C29.0729 99.807 27.2383 99.17 25.3782 99.17C24.0533 99.17 22.7283 99.5013 21.5052 100.291C21.4288 100.622 21.6071 100.648 21.811 100.801C23.671 102.253 25.3528 103.374 25.6585 106.024C26.27 111.171 22.1677 113.388 17.8615 113.388C16.9442 113.388 16.0269 113.286 15.1351 113.108C14.2433 112.904 5.1468 108.7 1.40118 106.84V103.604C1.68147 103.706 2.03819 103.884 2.47136 104.062C5.96217 105.693 13.5808 109.617 14.4217 109.821C15.3644 110.05 16.562 110.254 17.7086 110.254C19.3903 110.254 21.0211 109.821 21.9639 108.419C23.2379 106.483 21.8365 103.96 19.9509 103.018C18.2692 102.202 15.288 102.482 17.6067 99.5267C19.4413 97.208 22.2951 96.1378 25.1489 96.1378C25.8878 96.1378 26.6268 96.2143 27.3402 96.3417C32.9714 97.4373 35.4939 101.463 39.953 104.241C42.2972 105.718 46.425 107.68 49.8139 107.68C52.1836 107.68 54.1711 106.738 54.9865 104.011C56.235 99.858 53.7379 97.5393 50.3235 97.5393C49.4827 97.5393 48.5909 97.6667 47.6736 97.9724C46.8327 98.2527 45.6861 98.9916 44.8453 98.9916C44.2337 98.9916 43.7751 98.6094 43.6477 97.4373C42.9087 89.2836 51.1644 82.939 58.6302 82.4294C59.1652 82.3784 59.6494 82.3784 60.159 82.3784C69.9435 82.3784 76.1352 89.1307 81.2567 96.8768C81.6644 97.4883 82.0466 98.0998 82.4034 98.6604L82.4288 98.7114Z" fill="white"/>
<path d="M142.592 64.066C139.586 66.7159 136.502 69.2385 133.317 71.6082C130.132 73.9779 127.508 75.6341 125.393 76.6278C125.24 77.1629 125.011 77.5706 124.731 77.8509C124.425 78.1311 123.992 78.2586 123.406 78.2586C122.972 78.2586 122.641 78.1821 122.437 78.0038C122.233 77.8254 122.132 77.5196 122.132 77.0865C122.132 76.7807 122.233 75.5576 122.463 73.3918C122.692 71.226 122.794 68.7034 122.794 65.7986C122.794 60.8809 122.718 56.4219 122.565 52.4469C122.463 47.8095 122.412 44.5735 122.412 42.7134C122.412 39.8086 122.718 37.4135 123.304 35.5534C123.737 34.3813 124.527 33.7698 125.673 33.7698C126.056 33.7698 126.412 33.8462 126.744 33.9991C127.075 34.152 127.228 34.3558 127.228 34.6616C127.177 34.9164 126.922 35.7572 126.463 37.2351C126.005 38.713 125.75 40.1144 125.75 41.4394C125.75 45.134 125.826 49.1599 125.979 53.5426C126.081 59.1482 126.132 63.0468 126.132 65.2126C126.132 68.9072 126.106 71.124 126.056 71.863C127.839 71.175 130.234 69.7481 133.241 67.5823C136.273 65.4164 138.821 63.4544 140.885 61.6708C145.166 57.8233 148.3 54.3834 150.262 51.3258C152.224 48.2681 153.218 45.1086 153.218 41.7961C153.218 37.8212 150.721 35.0693 145.726 33.5914C140.732 32.1135 134.209 31.3746 126.132 31.3746C123.66 31.3746 120.373 31.6804 116.246 32.2664C115.456 32.3174 114.233 32.5722 112.551 33.0054C111.812 33.2602 111.302 33.3621 110.997 33.3621C110.614 33.3621 110.232 33.0308 109.85 32.3938C109.493 31.7568 109.289 31.1198 109.289 30.4828C109.289 30.228 109.468 29.9987 109.799 29.7694C110.13 29.54 110.691 29.3871 111.43 29.2852C114.386 28.903 116.908 28.5973 118.997 28.3934C121.087 28.1896 123.533 28.0876 126.336 28.0876C135.305 28.0876 142.592 29.1069 148.223 31.1198C153.855 33.1328 156.683 36.5471 156.683 41.3884C156.683 45.236 155.587 48.8797 153.371 52.3195C151.154 55.7594 147.561 59.6833 142.592 64.066Z" fill="white"/>
<path d="M200.84 54.6884C200.484 54.9942 199.77 55.249 198.7 55.4528C197.604 55.6821 196.891 55.8095 196.483 55.8605C196.866 57.7206 197.069 58.6379 197.069 58.5869C197.401 59.81 197.783 61.5172 198.165 63.683C199.057 68.6517 199.949 72.8814 200.891 76.3722C201.146 77.4934 201.274 78.1559 201.274 78.3597C201.274 78.8438 201.07 79.277 200.688 79.6082C200.305 79.9395 199.821 80.1178 199.286 80.1178C198.802 80.1178 198.343 79.863 197.961 79.3534C197.579 78.8438 197.299 78.3852 197.146 77.9775C196.713 76.2958 196.305 74.4357 195.923 72.3718C195.566 70.3079 195.133 67.8108 194.623 64.9061C194.419 63.632 194.114 62.0522 193.655 60.1412C193.222 58.2557 192.916 57.0071 192.763 56.4211C189.858 56.8033 184.864 57.5932 177.781 58.7908L173.5 59.5297L171.946 63.8868L169.882 69.7983C168.149 75.1747 166.926 79.3025 166.187 82.2072C166.034 82.8952 165.754 83.4813 165.295 83.9399C164.862 84.3985 164.302 84.6534 163.665 84.6534C163.129 84.6534 162.671 84.5005 162.289 84.2202C161.932 83.9144 161.728 83.5067 161.728 82.9717C161.728 82.4366 162.034 81.29 162.62 79.5318C163.206 77.7737 163.563 76.729 163.665 76.3977C163.868 75.9136 164.251 74.767 164.837 73.0088C165.474 71.0978 166.289 68.7536 167.308 66.0272C168.327 63.3008 168.99 61.4917 169.347 60.5999C166.85 61.1859 164.964 61.67 163.741 62.0013C161.881 62.4854 160.709 62.7402 160.276 62.7402C159.741 62.7402 159.333 62.5364 159.053 62.1032C158.772 61.6955 158.645 61.2369 158.645 60.7273C158.645 60.1412 158.798 59.7335 159.078 59.5042C159.384 59.2749 159.868 59.071 160.556 58.8672C162.416 58.434 164.403 57.9754 166.493 57.5422C168.582 57.1091 170.035 56.8033 170.799 56.6504C171.283 55.2235 171.665 54.0259 171.895 53.0322C172.099 52.3952 172.353 51.5798 172.659 50.637C172.99 49.6688 173.347 48.4967 173.729 47.0443L174.825 43.2732C176.685 36.6738 177.781 32.9027 178.061 31.9854C178.316 31.2974 178.545 30.7623 178.749 30.3546C178.978 29.9724 179.284 29.7686 179.666 29.7686C180.66 29.7686 181.526 29.9215 182.316 30.2017C182.418 30.0998 182.571 29.896 182.8 29.5647C183.03 29.2335 183.259 29.0296 183.539 28.9022C183.82 28.7748 184.176 28.7239 184.609 28.7239C185.501 28.7239 186.52 29.7431 187.667 31.7561C188.814 33.769 189.935 36.1642 191.031 38.916C191.668 40.5468 192.483 42.9674 193.477 46.178C194.47 49.414 195.107 51.5288 195.388 52.5735C196.127 52.4716 196.764 52.3442 197.273 52.1659C197.783 51.9875 198.114 51.8856 198.267 51.8346C198.522 51.7327 198.777 51.5543 199.082 51.325C199.388 51.0702 199.643 50.8918 199.898 50.7644C200.152 50.637 200.407 50.6625 200.713 50.7899C201.35 51.0957 201.681 51.7072 201.681 52.6245C201.681 52.9812 201.605 53.338 201.427 53.7202C201.248 54.1024 201.019 54.4081 200.739 54.612L200.84 54.6884ZM188.355 40.7506C187.667 38.9415 186.775 37.056 185.705 35.1449C184.609 33.2339 183.718 32.0109 182.979 31.5267L182.163 33.4378C181.221 35.2978 180.507 37.005 180.023 38.5338C178.851 42.0756 176.965 47.9361 174.417 56.1153L183.055 54.6374L190.139 53.5418L192.126 53.236C191.871 52.3442 191.362 50.4841 190.572 47.6558C189.782 44.8275 189.043 42.5343 188.355 40.7506Z" fill="white"/>
<path d="M246.909 71.7602C244.488 71.7602 239.341 70.104 231.468 66.817L229.481 65.9252C226.678 64.7531 224.486 63.8613 222.958 63.2752C221.403 62.6892 219.925 62.2051 218.498 61.7974C218.498 67.9127 218.346 72.1934 218.065 74.6395C217.53 76.6015 216.817 77.5952 215.925 77.5952C215.492 77.5952 215.084 77.4678 214.702 77.2385C214.345 76.9837 214.141 76.6779 214.141 76.2702C214.141 75.3784 214.218 74.1808 214.371 72.652C214.676 69.4924 214.804 66.7915 214.804 64.5238V61.4152C214.32 61.0839 213.963 60.7527 213.734 60.4979C213.504 60.2176 213.402 59.9118 213.402 59.5806C213.402 59.1474 213.53 58.7397 213.81 58.3575C214.09 58.0008 214.396 57.6441 214.727 57.3128C215.084 56.9816 215.313 56.7268 215.466 56.5484C215.517 55.5037 215.543 53.7201 215.543 51.1466C215.543 44.751 214.625 37.9732 212.816 30.8387L212.511 29.3608C212.511 28.6729 212.791 28.1378 213.351 27.7301C213.912 27.3479 214.574 27.144 215.313 27.144C215.848 27.144 216.409 28.2142 216.97 30.3291C217.53 32.444 217.989 35.1449 218.346 38.4064C218.702 41.6679 218.855 44.9548 218.855 48.2673V53.2105C219.543 52.4715 221.097 50.7644 223.518 48.1144C225.939 45.4644 228.283 42.789 230.602 40.139C234.5 35.5526 237.481 31.4757 239.596 27.883C240.131 26.8892 240.794 25.6152 241.584 24.0354C242.323 22.5066 242.781 21.7422 242.985 21.7422C243.52 21.7422 243.801 22.3282 243.801 23.5258C243.801 24.9527 243.571 26.3287 243.138 27.6282C242.705 28.9277 242.068 30.3291 241.227 31.8069C239.851 34.2276 238.271 36.5973 236.462 38.9415C234.653 41.2857 232.385 43.9356 229.633 46.8659C228.589 47.936 227.697 48.8788 226.907 49.6687C226.117 50.4586 225.429 51.1721 224.843 51.8091C222.295 54.3571 220.231 56.4975 218.728 58.2301C219.365 58.4849 220.843 59.02 223.187 59.8609C225.531 60.7017 228.563 61.7464 232.309 63.0459C234.959 63.9887 237.176 64.7276 238.959 65.2882C240.743 65.8487 242.246 66.3584 243.546 66.7915C243.851 66.8935 244.183 66.9954 244.59 67.1228C244.973 67.2502 245.406 67.3776 245.839 67.5305C247.521 68.0656 248.336 68.6516 248.336 69.3141C248.336 69.9766 248.183 70.5117 247.903 71.0213C247.597 71.5054 247.291 71.7602 246.935 71.7602H246.909Z" fill="white"/>
<path d="M291.499 57.364C290.608 57.6698 289.537 57.8482 288.289 57.9246C287.04 58.0011 286.199 58.0265 285.817 58.0265C285.766 59.5554 285.664 61.2625 285.512 63.1226C285.359 64.9827 285.231 66.537 285.155 67.7855L284.925 70.0788L284.773 72.4484L284.339 78.1306C284.136 80.6531 283.32 81.9017 281.893 81.9017C281.358 81.9017 280.823 81.2647 280.314 80.0161C279.804 78.7676 279.549 77.7484 279.549 76.9585C279.549 76.7546 279.753 76.3724 280.135 75.7864C280.517 75.2003 280.772 74.4614 280.874 73.5696C281.078 72.1936 281.282 69.9004 281.537 66.7154C281.791 63.5048 281.944 60.8294 282.046 58.6635C280.135 58.8164 278.071 59.0203 275.854 59.326C274.861 59.428 272.644 59.6573 269.204 59.9885C265.764 60.3453 263.063 60.5491 261.076 60.651C260.872 63.887 260.668 67.862 260.413 72.5504C260.159 77.2133 260.031 80.0926 260.031 81.1118C260.031 81.494 260.082 82.0291 260.209 82.6661C260.337 83.3031 260.388 83.7872 260.388 84.1439C260.388 84.5771 260.057 85.0358 259.394 85.4689C258.732 85.9021 258.197 86.1314 257.814 86.1314C257.33 86.1314 256.923 85.8002 256.591 85.1632C256.26 84.5262 256.107 83.7872 256.107 82.9464C256.107 82.5132 256.158 81.7743 256.26 80.7805C256.362 79.7613 256.438 78.895 256.489 78.1561C256.693 76.8311 256.821 75.7354 256.872 74.9201C257.126 72.0153 257.305 69.2124 257.458 66.5115C257.61 63.8106 257.712 61.976 257.763 61.0587C254.655 61.5938 251.725 61.8741 248.973 61.8741C248.03 61.8741 247.24 61.6448 246.577 61.1606C245.915 60.702 245.584 60.014 245.584 59.1222C245.584 58.4852 245.737 58.0011 246.068 57.6953C246.399 57.3641 247.036 57.2112 248.03 57.2112L251.954 57.2876C254.502 57.3895 256.591 57.4405 258.146 57.4405C258.4 53.2617 258.528 49.8983 258.528 47.4012C258.528 41.6936 258.477 36.572 258.375 32.0365V29.3101C258.375 28.5712 258.655 27.9597 259.216 27.501C259.776 27.0424 260.439 26.7876 261.178 26.7876C261.713 26.7876 262.095 27.1953 262.273 28.0361C262.477 28.877 262.579 29.8197 262.579 30.839C262.579 31.8582 262.452 34.1259 262.197 37.4893C261.891 43.1969 261.764 46.2291 261.764 46.5604L261.407 57.1092C265.535 57.0073 272.542 56.3703 282.454 55.1982C282.658 53.7713 282.989 50.0257 283.499 43.9868C283.702 40.7763 283.881 38.4576 284.008 36.9797L284.441 31.2212C285.078 23.9847 285.41 19.4492 285.41 17.6401C285.41 17.0031 285.664 16.4935 286.149 16.0858C286.633 15.7036 287.193 15.4998 287.856 15.4998C288.748 15.4998 289.181 16.3661 289.181 18.0733C289.181 19.1434 288.926 22.0482 288.442 26.7111C287.907 32.8264 287.601 36.2153 287.55 36.9033C287.244 40.6999 286.964 44.3181 286.709 47.7579C286.429 51.1978 286.25 53.5165 286.149 54.6886C287.04 54.5357 287.83 54.3319 288.518 54.0261C289.41 53.7203 290.098 53.593 290.582 53.593C291.066 53.593 291.652 53.8987 292.289 54.4848C292.926 55.0708 293.258 55.504 293.258 55.7333C293.258 56.5232 292.697 57.0838 291.55 57.4405L291.499 57.364Z" fill="white"/>
<path d="M334.383 72.4995L321.694 73.4677L312.903 74.2066L308.317 74.5634C307.909 74.5634 307.552 74.3086 307.247 73.8245C306.915 73.3403 306.762 72.8562 306.762 72.423C306.762 72.0918 306.864 71.8115 307.094 71.6586C307.323 71.4802 307.552 71.3528 307.833 71.3019C308.113 71.2254 308.291 71.1745 308.393 71.1235C308.444 68.4736 308.47 62.2564 308.47 52.5228C308.47 45.3374 308.189 39.7572 307.629 35.8077C307.068 31.8582 306.788 29.7179 306.788 29.4121C306.788 28.7241 307.043 28.189 307.552 27.7814C308.062 27.3992 308.597 27.1953 309.132 27.1953C309.489 27.1953 309.744 27.3227 309.947 27.603C310.151 27.8833 310.279 28.3164 310.381 28.9025C310.865 30.5842 311.247 33.6419 311.527 38.1264C311.808 42.611 311.935 47.2739 311.935 52.1661C311.935 56.2939 311.935 60.1415 311.858 63.6832C311.808 67.225 311.782 69.6202 311.782 70.8432C312.419 70.7923 313.642 70.7158 315.477 70.5884C317.286 70.461 319.171 70.3336 321.082 70.1808C323.936 69.824 327.172 69.3144 330.765 68.6264C333.67 68.0914 335.428 67.8111 336.014 67.8111C336.549 67.8111 336.906 68.0659 337.059 68.55C337.211 69.0341 337.288 69.6457 337.288 70.3336C337.288 70.9706 337.008 71.4803 336.447 71.8879C335.886 72.2701 335.199 72.4995 334.409 72.5504L334.383 72.4995Z" fill="white"/>
<path d="M382.159 54.6884C381.802 54.9942 381.089 55.249 380.019 55.4528C378.923 55.6821 378.21 55.8095 377.802 55.8605C378.184 57.7206 378.388 58.6379 378.388 58.5869C378.719 59.81 379.102 61.5172 379.484 63.683C380.376 68.6517 381.267 72.8814 382.21 76.3722C382.465 77.4934 382.592 78.1559 382.592 78.3597C382.592 78.8438 382.388 79.277 382.006 79.6082C381.624 79.9395 381.14 80.1178 380.605 80.1178C380.121 80.1178 379.662 79.863 379.28 79.3534C378.898 78.8438 378.617 78.3852 378.465 77.9775C378.031 76.2958 377.624 74.4357 377.241 72.3718C376.885 70.3079 376.452 67.8108 375.942 64.9061C375.738 63.632 375.432 62.0522 374.974 60.1412C374.541 58.2557 374.235 57.0071 374.082 56.4211C371.177 56.8033 366.183 57.5932 359.099 58.7908L354.819 59.5297L353.264 63.8868L351.2 69.7983C349.468 75.1747 348.245 79.3025 347.506 82.2072C347.353 82.8952 347.073 83.4813 346.614 83.9399C346.181 84.3985 345.62 84.6534 344.983 84.6534C344.448 84.6534 343.99 84.5005 343.607 84.2202C343.251 83.9144 343.047 83.5067 343.047 82.9717C343.047 82.4366 343.353 81.29 343.939 79.5318C344.525 77.7737 344.881 76.729 344.983 76.3977C345.187 75.9136 345.569 74.767 346.155 73.0088C346.792 71.0978 347.608 68.7536 348.627 66.0272C349.646 63.3008 350.309 61.4917 350.665 60.5999C348.168 61.1859 346.283 61.67 345.06 62.0013C343.2 62.4854 342.028 62.7402 341.594 62.7402C341.059 62.7402 340.652 62.5364 340.371 62.1032C340.091 61.6955 339.964 61.2369 339.964 60.7273C339.964 60.1412 340.117 59.7335 340.397 59.5042C340.703 59.2749 341.187 59.071 341.875 58.8672C343.735 58.434 345.722 57.9754 347.812 57.5422C349.901 57.1091 351.353 56.8033 352.118 56.6504C352.602 55.2235 352.984 54.0259 353.213 53.0322C353.417 52.3952 353.672 51.5798 353.978 50.637C354.309 49.6688 354.666 48.4967 355.048 47.0443L356.144 43.2732C358.004 36.6738 359.099 32.9027 359.38 31.9854C359.635 31.2974 359.864 30.7623 360.068 30.3546C360.297 29.9724 360.603 29.7686 360.985 29.7686C361.979 29.7686 362.845 29.9215 363.635 30.2017C363.737 30.0998 363.89 29.896 364.119 29.5647C364.348 29.2335 364.578 29.0296 364.858 28.9022C365.138 28.7748 365.495 28.7239 365.928 28.7239C366.82 28.7239 367.839 29.7431 368.986 31.7561C370.132 33.769 371.254 36.1642 372.349 38.916C372.986 40.5468 373.802 42.9674 374.795 46.178C375.789 49.414 376.426 51.5288 376.706 52.5735C377.445 52.4716 378.082 52.3442 378.592 52.1659C379.102 51.9875 379.433 51.8856 379.586 51.8346C379.84 51.7327 380.095 51.5543 380.401 51.325C380.707 51.0702 380.962 50.8918 381.216 50.7644C381.471 50.637 381.726 50.6625 382.032 50.7899C382.669 51.0957 383 51.7072 383 52.6245C383 52.9812 382.924 53.338 382.745 53.7202C382.567 54.1024 382.338 54.4081 382.057 54.612L382.159 54.6884ZM369.674 40.7506C368.986 38.9415 368.094 37.056 367.024 35.1449C365.928 33.2339 365.036 32.0109 364.297 31.5267L363.482 33.4378C362.539 35.2978 361.826 37.005 361.342 38.5338C360.17 42.0756 358.284 47.9361 355.736 56.1153L364.374 54.6374L371.457 53.5418L373.445 53.236C373.19 52.3442 372.68 50.4841 371.891 47.6558C371.101 44.8275 370.362 42.5343 369.674 40.7506Z" fill="white"/>
<path d="M145.765 107.552C146.708 107.399 147.421 107.017 147.931 106.431C148.44 105.845 148.695 105.106 148.695 104.189V102.023C148.695 100.698 148.313 99.6787 147.574 98.9653C146.835 98.2518 145.765 97.8696 144.414 97.8696H139.216V117.948H144.72C146.071 117.948 147.115 117.591 147.854 116.853C148.593 116.114 148.975 115.094 148.975 113.769V111.043C148.975 110.049 148.695 109.259 148.134 108.648C147.574 108.036 146.784 107.68 145.79 107.527L145.765 107.552ZM142.656 101.08H144.058C144.465 101.08 144.771 101.182 145 101.411C145.23 101.641 145.332 101.946 145.332 102.354V104.52C145.332 105.004 145.23 105.361 145 105.616C144.771 105.87 144.465 105.998 144.058 105.998H142.656V101.055V101.08ZM145.51 113.464C145.51 113.871 145.383 114.177 145.153 114.406C144.924 114.636 144.593 114.738 144.159 114.738H142.631V109.183H144.109C144.567 109.183 144.898 109.31 145.153 109.591C145.383 109.871 145.51 110.253 145.51 110.763V113.464Z" fill="white"/>
<path d="M155.982 97.8955H154.479V117.974H155.982H157.893H163.397V114.636H157.893V109.642H162.709V106.33H157.893V101.233H163.397V97.8955H157.893H155.982Z" fill="white"/>
<path d="M172.341 106.202L170.455 97.8955H166.888L170.659 110.279V117.974H174.074V110.279L177.692 97.8955H174.125L172.341 106.202Z" fill="white"/>
<path d="M189.082 110.228L184.724 97.8955H182.023V117.949H185.158V106.304L189.464 117.949H192.19V97.8955H189.082V110.228Z" fill="white"/>
<path d="M203.249 97.8955H198.051V117.974H203.223C204.191 117.974 205.007 117.796 205.695 117.439C206.383 117.082 206.892 116.573 207.249 115.91C207.606 115.248 207.784 114.432 207.784 113.49V102.406C207.784 100.979 207.377 99.883 206.587 99.0931C205.797 98.3032 204.676 97.921 203.223 97.921L203.249 97.8955ZM204.344 113.082C204.344 113.591 204.217 113.974 203.962 114.254C203.707 114.534 203.351 114.687 202.892 114.687H201.465V101.182H202.892C203.351 101.182 203.707 101.31 203.962 101.59C204.217 101.87 204.344 102.253 204.344 102.788V113.082Z" fill="white"/>
<path d="M226.563 97.8955L221.773 117.974H225.162L225.773 114.84H229.748L230.36 117.974H233.749L228.958 97.8955H226.563ZM226.41 111.655L227.761 104.826L229.111 111.655H226.41Z" fill="white"/>
<path d="M243.839 97.8955H238.641V117.974H243.813C244.782 117.974 245.597 117.796 246.285 117.439C246.973 117.082 247.483 116.573 247.839 115.91C248.196 115.248 248.374 114.432 248.374 113.49V102.406C248.374 100.979 247.967 99.883 247.177 99.0931C246.387 98.3032 245.266 97.921 243.813 97.921L243.839 97.8955ZM244.935 113.082C244.935 113.591 244.807 113.974 244.552 114.254C244.298 114.534 243.941 114.687 243.482 114.687H242.055V101.182H243.482C243.941 101.182 244.298 101.31 244.552 101.59C244.807 101.87 244.935 102.253 244.935 102.788V113.082Z" fill="white"/>
<path d="M258.567 111.757L256.656 97.8955H253.012L256.706 117.974H260.427L264.121 97.8955H260.478L258.567 111.757Z" fill="white"/>
<path d="M270.39 97.8955H268.861V117.974H270.39H272.301H277.779V114.636H272.301V109.642H277.091V106.33H272.301V101.233H277.779V97.8955H272.301H270.39Z" fill="white"/>
<path d="M289.984 110.228L285.652 97.8955H282.951V117.949H286.085V106.304L290.392 117.949H293.118V97.8955H289.984V110.228Z" fill="white"/>
<path d="M298.698 101.182H302.011V117.974H305.425V101.182H308.763V97.8955H298.698V101.182Z" fill="white"/>
<path d="M319.184 113.209C319.184 113.693 319.057 114.076 318.828 114.356C318.573 114.636 318.242 114.764 317.808 114.764C317.375 114.764 317.044 114.636 316.815 114.356C316.585 114.076 316.458 113.693 316.458 113.209V97.8955H313.018V113.107C313.018 114.713 313.451 115.961 314.292 116.853C315.133 117.745 316.305 118.178 317.808 118.178C319.312 118.178 320.509 117.745 321.35 116.853C322.191 115.961 322.624 114.713 322.624 113.107V97.8955H319.184V113.209Z" fill="white"/>
<path d="M335.696 108.928C336.46 108.571 337.046 108.036 337.454 107.323C337.862 106.609 338.066 105.769 338.066 104.775V102.431C338.066 101.462 337.862 100.647 337.454 99.959C337.046 99.2711 336.46 98.7614 335.696 98.4047C334.931 98.048 333.989 97.8696 332.919 97.8696H327.975V117.974H331.339V109.489H332.485L334.957 117.974H338.626L335.645 108.928C335.645 108.928 335.645 108.928 335.67 108.928H335.696ZM334.549 104.851C334.549 105.259 334.422 105.59 334.167 105.82C333.912 106.049 333.556 106.176 333.122 106.176H331.339V101.157H333.122C333.581 101.157 333.912 101.284 334.167 101.539C334.422 101.794 334.549 102.15 334.549 102.609V104.851Z" fill="white"/>
<path d="M353.073 101.233V97.8955H347.57H345.659H344.155V117.974H345.659H347.57H353.073V114.636H347.57V109.642H352.385V106.33H347.57V101.233H353.073Z" fill="white"/>
</svg>
