<svg width="21" height="21" viewBox="0 0 21 21" fill="none" xmlns="http://www.w3.org/2000/svg">
<g id="Component 8">
<g id="Vector">
<path d="M6.6058 8.06043C7.33874 8.06043 7.93289 7.46627 7.93289 6.73334C7.93289 6.00041 7.33874 5.40625 6.6058 5.40625C5.87287 5.40625 5.27872 6.00041 5.27872 6.73334C5.27872 7.46627 5.87287 8.06043 6.6058 8.06043Z" fill="#033A4E"/>
<path d="M7.71171 8.94672H5.4999C5.37781 8.94672 5.27872 9.0458 5.27872 9.1679V15.8033C5.27872 15.9254 5.37781 16.0245 5.4999 16.0245H7.71171C7.8338 16.0245 7.93289 15.9254 7.93289 15.8033V9.1679C7.93289 9.0458 7.8338 8.94672 7.71171 8.94672Z" fill="#033A4E"/>
<path d="M14.3036 8.5786C13.3583 8.25479 12.1758 8.53923 11.4667 9.04927C11.4424 8.95417 11.3557 8.88339 11.2526 8.88339H9.04081C8.91872 8.88339 8.81963 8.98248 8.81963 9.10457V15.74C8.81963 15.8621 8.91872 15.9612 9.04081 15.9612H11.2526C11.3747 15.9612 11.4738 15.8621 11.4738 15.74V10.9713C11.8312 10.6635 12.2917 10.5653 12.6686 10.7254C13.034 10.8798 13.2433 11.2567 13.2433 11.7587V15.74C13.2433 15.8621 13.3423 15.9612 13.4644 15.9612H15.6763C15.7983 15.9612 15.8974 15.8621 15.8974 15.74V11.3133C15.8722 9.49562 15.0171 8.82278 14.3036 8.5786Z" fill="#033A4E"/>
</g>
</g>
</svg>
