<svg width="44" height="60" viewBox="0 0 44 60" fill="none" xmlns="http://www.w3.org/2000/svg">
<path d="M40.3138 60H3.37976C1.82737 60 0.559583 58.7322 0.559583 57.1798V21.2937C0.546647 9.54722 10.1068 0 21.8403 0C33.5738 0 43.134 9.54722 43.134 21.2937V57.1798C43.134 58.7322 41.8662 60 40.3138 60ZM21.8403 1.4489C10.8959 1.4489 1.99555 10.3493 1.99555 21.2937V57.1798C1.99555 57.9431 2.61651 58.5511 3.36683 58.5511H40.3008C41.0641 58.5511 41.6721 57.9301 41.6721 57.1798V21.2937C41.6721 10.3493 32.7717 1.4489 21.8274 1.4489H21.8403Z" fill="white"/>
<path d="M40.1079 11.837L20.1726 8.92623C20.1985 8.564 20.2114 8.20178 20.2114 7.83955C20.2114 5.39453 19.7069 3.06594 18.8013 0.944336C18.3097 1.00902 17.8181 1.09958 17.3395 1.216C18.258 3.23412 18.7625 5.48509 18.7625 7.83955C18.7625 16.7788 11.4792 24.0621 2.54001 24.0621C2.1131 24.0621 1.69913 24.0491 1.28516 24.0103V25.4722C1.69913 25.511 2.1131 25.5239 2.54001 25.5239C2.99279 25.5239 3.4197 25.498 3.85954 25.4722L4.26057 33.3247L4.29938 33.9974L5.74829 33.9586V33.6352L5.2955 25.304C6.9902 25.0323 8.62021 24.5278 10.1209 23.8033L16.835 36.7658L16.9643 37.0246L18.2709 36.4036L17.8958 35.6921L11.3886 23.1306C13.6526 21.8111 15.606 20.0129 17.0808 17.8654L20.3408 20.3234L21.0264 20.8409L21.9837 19.7412L20.7159 18.7839L17.857 16.6235C18.9436 14.7348 19.6939 12.6261 20.0174 10.3881L40.8324 13.4152L41.2334 13.467L40.9488 12.1216L40.095 11.837H40.1079Z" fill="white"/>
<path d="M34.8025 19.3014L25.8762 17.6196C25.6175 17.5679 25.3458 17.542 25.0741 17.5291L23.7417 15.6533C23.3148 15.0452 22.5644 14.8124 21.8659 15.0323C21.1543 15.2652 20.7016 15.8861 20.7016 16.6365L20.7274 18.771V19.6766C20.5851 19.8835 20.4558 20.0905 20.3523 20.3105C20.0289 20.9185 19.8348 21.5653 19.796 22.238L19.0586 32.044C18.9422 33.4929 18.58 34.7348 17.9202 35.6662C17.6227 36.0931 17.2734 36.4553 16.8465 36.7529C16.1738 37.2315 15.3458 37.542 14.3497 37.6326C14.1168 37.6585 13.871 37.6714 13.6123 37.6714V39.1203C14.7378 39.1203 15.7339 38.9262 16.5877 38.5511C18.9422 37.542 20.2876 35.2264 20.5205 32.1345L21.2708 22.3415C21.3225 21.63 21.5942 20.9443 22.0599 20.3493L22.2152 20.1552L22.1893 16.6235C22.1893 16.4812 22.2798 16.4165 22.3445 16.4036C22.4092 16.3777 22.5256 16.3777 22.6032 16.4941L24.3756 18.9909H24.7637C25.0741 18.965 25.3587 18.9909 25.6304 19.0297L34.5567 20.7115C36.0314 20.9961 37.0922 22.2768 37.0922 23.7775C37.0922 24.3337 36.6395 24.7995 36.0832 24.7995H32.1505L31.9435 25.0064C31.232 25.718 30.2747 26.119 29.2656 26.1319H27.0923V35.511H28.5412V27.5938H29.2656C30.5593 27.5808 31.7753 27.1022 32.7455 26.2484H36.0832C37.4415 26.2484 38.5411 25.1358 38.5411 23.7775C38.5411 21.5782 36.9758 19.6895 34.8154 19.2885L34.8025 19.3014Z" fill="white"/>
<path d="M14.3367 37.6454C12.0728 36.7657 9.69249 35.679 7.3639 34.3466C7.19572 34.2431 7.02755 34.1655 6.85937 34.0749C6.80762 34.049 6.75588 34.0232 6.71707 34.0102C6.57476 33.9455 6.43246 33.8809 6.27722 33.8162C6.21254 33.7903 6.14785 33.7644 6.08317 33.7515C5.96674 33.7127 5.86325 33.6739 5.75976 33.6351H5.73388C5.65626 33.6092 5.59158 33.5962 5.51396 33.5704C5.43634 33.5445 5.37166 33.5316 5.29404 33.5186C5.11293 33.4798 4.94475 33.441 4.77658 33.4151C4.73777 33.4151 4.68602 33.4022 4.66015 33.3893C4.54372 33.3634 4.42729 33.3505 4.31086 33.3375C4.31086 33.3375 4.27205 33.3375 4.25911 33.3375C3.9745 33.3116 3.6899 33.2858 3.40529 33.2858C2.69378 33.2858 1.98227 33.3763 1.28369 33.5574V35.0581C1.9952 34.864 2.70672 34.7476 3.40529 34.7476C3.65109 34.7476 3.90982 34.7605 4.15562 34.7864C4.24618 34.7994 4.33673 34.8123 4.44022 34.8252H4.49197L4.53078 34.8382C4.67308 34.864 4.81539 34.8899 4.95769 34.9287H4.98356C4.98356 34.9287 5.08706 34.9546 5.12587 34.9675C5.19055 34.9934 5.26817 35.0063 5.33285 35.0322C5.42341 35.0581 5.51396 35.0969 5.60452 35.1228L5.64333 35.1486C5.64333 35.1486 5.70801 35.1745 5.75976 35.1875C5.87619 35.2392 5.99262 35.2909 6.12198 35.3427C6.16079 35.3556 6.21254 35.3815 6.23841 35.3944C6.40659 35.4721 6.53595 35.5367 6.66532 35.6144C8.76105 36.8175 11.025 37.8912 13.4182 38.8485C13.2371 38.9649 13.056 39.0814 12.8749 39.1978L12.3186 39.56C11.9435 39.7929 11.5683 40.0387 11.1931 40.2845L11.012 40.4009L10.6886 40.6079C10.1582 40.9442 9.6278 41.2935 9.08446 41.6558L8.69637 41.9145L8.48938 42.0439C8.12716 42.2896 7.76493 42.5225 7.38977 42.7812C7.1181 42.9624 6.83349 43.1435 6.56182 43.3375L5.64333 43.9455L4.69896 44.5794C3.59934 45.3039 2.47386 46.0801 1.29663 46.8563V48.6157C1.45187 48.4992 1.62004 48.3957 1.78822 48.2922C3.06894 47.4255 4.29792 46.5975 5.50102 45.7825C5.82444 45.5755 6.13492 45.3556 6.4454 45.1486C6.75588 44.9417 7.05342 44.7476 7.3639 44.5406C7.63557 44.3466 7.92017 44.1655 8.19184 43.9843C8.567 43.7386 8.92922 43.4928 9.29145 43.2599C9.4855 43.1305 9.69249 42.9882 9.88654 42.8589C10.4299 42.5096 10.9473 42.1603 11.4777 41.8239C11.6459 41.7075 11.8012 41.604 11.9823 41.4876C12.3574 41.2547 12.7326 41.0089 13.1077 40.7631C13.2889 40.6467 13.4829 40.5303 13.664 40.4138C14.0262 40.181 14.3755 39.9611 14.7248 39.7282C14.893 39.6247 15.0482 39.5212 15.2164 39.4177C15.6821 39.1331 16.1349 38.8485 16.5877 38.5639C16.6265 38.538 16.6653 38.5122 16.7041 38.4992C15.9409 38.2405 15.1647 37.9559 14.3626 37.6454H14.3367Z" fill="white"/>
<path d="M41.6588 32.6132C40.5463 32.3027 39.3949 32.1475 38.2048 32.1475C35.3328 32.1475 32.1634 33.0142 28.5282 34.6442C28.0625 34.8512 27.5709 35.0841 27.0793 35.3169C20.3911 38.564 12.1375 44.1526 1.28369 51.4489V53.1953C1.4648 53.0789 1.64591 52.9495 1.82703 52.8331C2.17631 52.6132 2.51267 52.3803 2.84902 52.1475C20.0288 40.5821 30.3911 33.5964 38.2048 33.5964C39.2785 33.5964 40.2746 33.7257 41.2449 33.9845H41.2837C41.6588 34.1009 42.0469 34.2303 42.4221 34.3855V32.8331C42.1634 32.7425 41.9176 32.6779 41.6718 32.6002L41.6588 32.6132Z" fill="white"/>
<path d="M42.4094 50.1165V52.872C41.6073 51.7465 40.8958 50.4011 39.7315 48.7969C37.5323 45.7698 34.932 43.4024 31.0769 43.4024C30.8441 43.4024 30.5983 43.4153 30.3395 43.4282C27.6617 43.6352 24.6604 45.6145 24.2076 48.4088C24.8674 48.176 25.5271 48.0725 26.1481 48.0725C28.8518 48.0725 30.9088 50.1423 30.0032 53.3377C29.4081 55.4334 27.8945 56.1837 26.1481 56.1837C23.8195 56.1837 21.0769 54.8901 19.4728 53.7517C18.3344 52.9366 17.3771 51.8241 16.174 51.1514C15.3201 50.6727 14.3887 50.3493 13.4443 50.3493C12.7716 50.3493 12.0989 50.5175 11.478 50.9185C11.4392 51.0867 11.5297 51.0996 11.6332 51.1773C12.5776 51.9147 13.4314 52.4839 13.5866 53.8293C13.8971 56.4425 11.8143 57.568 9.62804 57.568C9.16232 57.568 8.69661 57.5162 8.24383 57.4257C7.79104 57.3222 3.17268 55.1876 1.271 54.2432V52.6003C1.4133 52.652 1.59441 52.7426 1.81433 52.8332C3.58665 53.6611 7.45469 55.6533 7.8816 55.7568C8.36025 55.8733 8.96827 55.9768 9.55042 55.9768C10.4042 55.9768 11.2322 55.7568 11.7108 55.0453C12.3577 54.0621 11.6462 52.7814 10.6888 52.3028C9.83503 51.8888 8.32144 52.0311 9.49867 50.5304C10.4301 49.3532 11.879 48.8099 13.3279 48.8099C13.7031 48.8099 14.0782 48.8487 14.4405 48.9134C17.2994 49.4696 18.5802 51.5136 20.8441 52.9237C22.0342 53.674 24.13 54.6702 25.8505 54.6702C27.0537 54.6702 28.0627 54.1915 28.4767 52.8073C29.1106 50.6986 27.8428 49.5214 26.1093 49.5214C25.6824 49.5214 25.2296 49.5861 24.7639 49.7413C24.337 49.8836 23.7548 50.2588 23.3279 50.2588C23.0174 50.2588 22.7846 50.0647 22.7199 49.4696C22.3447 45.3299 26.5362 42.1087 30.3266 41.85C30.5983 41.8241 30.8441 41.8241 31.1028 41.8241C36.0705 41.8241 39.2141 45.2523 41.8143 49.185C42.0213 49.4955 42.2154 49.806 42.3965 50.0906L42.4094 50.1165Z" fill="white"/>
</svg>
