<svg width="196" height="61" viewBox="0 0 196 61" fill="none" xmlns="http://www.w3.org/2000/svg">
<path d="M40.0227 60.4052H2.83924C1.27636 60.4052 1.32023e-05 59.1288 1.32023e-05 57.5659V21.4375C-0.0130108 9.61169 9.6117 0 21.4244 0C33.2372 0 42.8619 9.61169 42.8619 21.4375V57.5659C42.8619 59.1288 41.5855 60.4052 40.0227 60.4052ZM21.4244 1.45868C10.4062 1.45868 1.44567 10.4192 1.44567 21.4375V57.5659C1.44567 58.3344 2.07083 58.9465 2.82622 58.9465H40.0096C40.778 58.9465 41.3902 58.3213 41.3902 57.5659V21.4375C41.3902 10.4192 32.4297 1.45868 21.4114 1.45868H21.4244Z" fill="white"/>
<path d="M39.8153 11.9169L19.7454 8.98647C19.7714 8.6218 19.7845 8.25713 19.7845 7.89246C19.7845 5.43093 19.2765 3.08662 18.3649 0.950684C17.8699 1.0158 17.375 1.10697 16.8931 1.22419C17.8179 3.25593 18.3258 5.5221 18.3258 7.89246C18.3258 16.892 10.9933 24.2245 1.99373 24.2245C1.56394 24.2245 1.14717 24.2115 0.730408 24.1724V25.6441C1.14717 25.6832 1.56394 25.6962 1.99373 25.6962C2.44957 25.6962 2.87936 25.6702 3.32218 25.6441L3.72592 33.5497L3.76499 34.2269L5.22368 34.1879V33.8623L4.76784 25.4748C6.47397 25.2013 8.11499 24.6934 9.62577 23.964L16.3852 37.0141L16.5155 37.2745L17.8309 36.6494L17.4532 35.9331L10.9021 23.2868C13.1813 21.9584 15.1479 20.148 16.6327 17.986L19.9147 20.4606L20.605 20.9816L21.5688 19.8745L20.2924 18.9107L17.4141 16.7357C18.5081 14.8342 19.2635 12.7113 19.5891 10.4582L40.5447 13.5058L40.9484 13.5579L40.6619 12.2034L39.8023 11.9169H39.8153Z" fill="white"/>
<path d="M34.4743 19.4317L25.4878 17.7386C25.2273 17.6865 24.9538 17.6605 24.6803 17.6474L23.3388 15.759C22.909 15.1468 22.1536 14.9124 21.4503 15.1338C20.734 15.3682 20.2782 15.9934 20.2782 16.7488L20.3042 18.8977V19.8094C20.161 20.0178 20.0307 20.2262 19.9265 20.4476C19.6009 21.0597 19.4056 21.7109 19.3665 22.3882L18.6241 32.2603C18.5069 33.719 18.1423 34.9693 17.478 35.907C17.1785 36.3368 16.8268 36.7015 16.397 37.0011C15.7198 37.483 14.8863 37.7955 13.8834 37.8867C13.649 37.9127 13.4015 37.9258 13.1411 37.9258V39.3844C14.2741 39.3844 15.277 39.1891 16.1366 38.8114C18.5069 37.7955 19.8614 35.4642 20.0959 32.3515L20.8512 22.4924C20.9033 21.776 21.1768 21.0858 21.6457 20.4867L21.802 20.2913L21.7759 16.7358C21.7759 16.5925 21.8671 16.5274 21.9322 16.5144C21.9973 16.4883 22.1146 16.4883 22.1927 16.6055L23.977 19.1191H24.3677C24.6803 19.0931 24.9668 19.1191 25.2403 19.1582L34.2269 20.8513C35.7116 21.1379 36.7795 22.4272 36.7795 23.938C36.7795 24.498 36.3237 24.9669 35.7637 24.9669H31.8044L31.596 25.1753C30.8797 25.8916 29.9159 26.2954 28.9001 26.3084H26.712V35.7508H28.1707V27.7801H28.9001C30.2025 27.7671 31.4267 27.2852 32.4035 26.4256H35.7637C37.1312 26.4256 38.2382 25.3055 38.2382 23.938C38.2382 21.7239 36.6623 19.8224 34.4873 19.4187L34.4743 19.4317Z" fill="white"/>
<path d="M13.8704 37.8998C11.5912 37.0142 9.19477 35.9202 6.85045 34.5787C6.68114 34.4745 6.51183 34.3964 6.34252 34.3052C6.29042 34.2792 6.23833 34.2531 6.19925 34.2401C6.05599 34.175 5.91273 34.1098 5.75644 34.0447C5.69132 34.0187 5.6262 33.9926 5.56108 33.9796C5.44386 33.9405 5.33967 33.9015 5.23548 33.8624H5.20943C5.13129 33.8363 5.06617 33.8233 4.98802 33.7973C4.90988 33.7712 4.84476 33.7582 4.76661 33.7452C4.58428 33.7061 4.41497 33.667 4.24566 33.641C4.20659 33.641 4.15449 33.628 4.12844 33.6149C4.01123 33.5889 3.89401 33.5759 3.7768 33.5628C3.7768 33.5628 3.73772 33.5628 3.7247 33.5628C3.43817 33.5368 3.15164 33.5107 2.86512 33.5107C2.1488 33.5107 1.43248 33.6019 0.729187 33.7842V35.295C1.44551 35.0997 2.16182 34.9825 2.86512 34.9825C3.11257 34.9825 3.37305 34.9955 3.62051 35.0215C3.71168 35.0345 3.80284 35.0476 3.90703 35.0606H3.95913L3.9982 35.0736C4.14146 35.0997 4.28473 35.1257 4.42799 35.1648H4.45404C4.45404 35.1648 4.55823 35.1908 4.59731 35.2039C4.66243 35.2299 4.74057 35.2429 4.80569 35.269C4.89686 35.295 4.98802 35.3341 5.07919 35.3601L5.11826 35.3862C5.11826 35.3862 5.18338 35.4122 5.23548 35.4253C5.35269 35.4774 5.46991 35.5295 5.60015 35.5816C5.63922 35.5946 5.69132 35.6206 5.71736 35.6337C5.88667 35.7118 6.01692 35.7769 6.14716 35.8551C8.25704 37.0663 10.5362 38.1473 12.9457 39.1111C12.7633 39.2283 12.581 39.3455 12.3987 39.4627L11.8386 39.8274C11.4609 40.0618 11.0832 40.3093 10.7055 40.5567L10.5232 40.6739L10.1976 40.8823C9.66363 41.2209 9.12964 41.5726 8.58264 41.9373L8.19192 42.1977L7.98354 42.328C7.61886 42.5754 7.2542 42.8099 6.8765 43.0703C6.603 43.2527 6.31647 43.435 6.04296 43.6304L5.11826 44.2425L4.16751 44.8807C3.06048 45.61 1.92739 46.3915 0.742209 47.1729V48.9442C0.898496 48.8269 1.06781 48.7227 1.23712 48.6186C2.52649 47.7459 3.76377 46.9124 4.975 46.0919C5.3006 45.8835 5.61318 45.6621 5.92575 45.4537C6.23833 45.2453 6.53788 45.05 6.85045 44.8416C7.12395 44.6462 7.41048 44.4639 7.68398 44.2816C8.06168 44.0341 8.42635 43.7867 8.79102 43.5522C8.98638 43.422 9.19477 43.2787 9.39013 43.1485C9.93713 42.7968 10.4581 42.4452 10.9921 42.1066C11.1614 41.9894 11.3177 41.8852 11.5 41.7679C11.8777 41.5335 12.2554 41.2861 12.6331 41.0386C12.8154 40.9214 13.0108 40.8042 13.1931 40.687C13.5578 40.4525 13.9094 40.2311 14.2611 39.9967C14.4304 39.8925 14.5867 39.7883 14.756 39.6841C15.2249 39.3976 15.6807 39.111 16.1365 38.8245C16.1756 38.7985 16.2147 38.7724 16.2538 38.7594C15.4853 38.4989 14.7039 38.2124 13.8964 37.8998H13.8704Z" fill="white"/>
<path d="M41.377 32.8334C40.2569 32.5208 39.0978 32.3645 37.8996 32.3645C35.0083 32.3645 31.8174 33.2371 28.1577 34.8781C27.6888 35.0865 27.1939 35.3209 26.699 35.5554C19.9656 38.8244 11.6563 44.4507 0.729187 51.7963V53.5545C0.911523 53.4373 1.09386 53.307 1.27619 53.1898C1.62784 52.9684 1.96646 52.734 2.30509 52.4996C19.6009 40.8561 30.0331 33.8232 37.8996 33.8232C38.9806 33.8232 39.9834 33.9534 40.9602 34.2139H40.9993C41.377 34.3311 41.7677 34.4614 42.1454 34.6176V33.0548C41.8849 32.9636 41.6375 32.8985 41.39 32.8203L41.377 32.8334Z" fill="white"/>
<path d="M42.1324 50.4548V53.2289C41.3249 52.0958 40.6086 50.7413 39.4364 49.1264C37.2224 46.0788 34.6045 43.6954 30.7234 43.6954C30.489 43.6954 30.2415 43.7084 29.981 43.7214C27.2851 43.9298 24.2635 45.9225 23.8077 48.7356C24.4719 48.5012 25.1361 48.397 25.7613 48.397C28.4833 48.397 30.5541 50.4809 29.6424 53.6978C29.0433 55.8077 27.5195 56.5631 25.7613 56.5631C23.417 56.5631 20.6559 55.2607 19.0409 54.1145C17.8948 53.294 16.931 52.174 15.7198 51.4967C14.8602 51.0148 13.9225 50.6892 12.9717 50.6892C12.2945 50.6892 11.6172 50.8586 10.9921 51.2623C10.953 51.4316 11.0442 51.4446 11.1484 51.5228C12.0991 52.2651 12.9587 52.8382 13.115 54.1927C13.4276 56.8235 11.3307 57.9566 9.12967 57.9566C8.6608 57.9566 8.19194 57.9045 7.7361 57.8134C7.28026 57.7092 2.63071 55.5602 0.716187 54.6095V52.9554C0.85945 53.0075 1.04178 53.0987 1.26319 53.1898C3.04747 54.0234 6.94164 56.0291 7.37143 56.1333C7.85332 56.2505 8.46544 56.3547 9.05152 56.3547C9.9111 56.3547 10.7446 56.1333 11.2265 55.4169C11.8777 54.4271 11.1614 53.1377 10.1976 52.6559C9.33805 52.2391 7.81424 52.3824 8.99942 50.8716C9.93715 49.6864 11.3958 49.1394 12.8545 49.1394C13.2322 49.1394 13.6099 49.1785 13.9746 49.2436C16.8529 49.8036 18.1422 51.8614 20.4214 53.281C21.6196 54.0364 23.7295 55.0392 25.4617 55.0392C26.6729 55.0392 27.6888 54.5574 28.1056 53.1638C28.7438 51.0409 27.4674 49.8557 25.7222 49.8557C25.2924 49.8557 24.8366 49.9208 24.3677 50.0771C23.9379 50.2204 23.3518 50.5981 22.922 50.5981C22.6095 50.5981 22.375 50.4027 22.3099 49.8036C21.9322 45.6359 26.152 42.393 29.968 42.1325C30.2415 42.1064 30.489 42.1064 30.7494 42.1064C35.7506 42.1064 38.9155 45.5578 41.5333 49.5171C41.7417 49.8297 41.937 50.1422 42.1194 50.4288L42.1324 50.4548Z" fill="white"/>
<path d="M72.8841 32.7463C71.3473 34.1008 69.7714 35.3902 68.1434 36.6014C66.5154 37.8126 65.174 38.6592 64.093 39.1671C64.0148 39.4406 63.8976 39.649 63.7543 39.7922C63.5981 39.9355 63.3766 40.0006 63.0771 40.0006C62.8557 40.0006 62.6864 39.9616 62.5822 39.8704C62.478 39.7792 62.4259 39.6229 62.4259 39.4015C62.4259 39.2452 62.478 38.6201 62.5952 37.5131C62.7124 36.406 62.7645 35.1166 62.7645 33.6319C62.7645 31.1183 62.7254 28.8391 62.6473 26.8074C62.5952 24.437 62.5692 22.783 62.5692 21.8322C62.5692 20.3475 62.7254 19.1232 63.025 18.1725C63.2464 17.5734 63.6501 17.2608 64.2362 17.2608C64.4316 17.2608 64.6139 17.2999 64.7832 17.378C64.9525 17.4561 65.0307 17.5603 65.0307 17.7166C65.0046 17.8469 64.8744 18.2767 64.64 19.032C64.4055 19.7874 64.2753 20.5038 64.2753 21.181C64.2753 23.0695 64.3144 25.1273 64.3925 27.3674C64.4446 30.2327 64.4707 32.2253 64.4707 33.3324C64.4707 35.2208 64.4576 36.3539 64.4316 36.7316C65.3433 36.38 66.5675 35.6506 68.1043 34.5436C69.6542 33.4366 70.9566 32.4337 72.0115 31.522C74.1996 29.5554 75.8015 27.7972 76.8044 26.2343C77.8072 24.6714 78.3151 23.0565 78.3151 21.3633C78.3151 19.3316 77.0388 17.925 74.4861 17.1696C71.9334 16.4142 68.5993 16.0365 64.4707 16.0365C63.2073 16.0365 61.5272 16.1928 59.4174 16.4924C59.0136 16.5184 58.3885 16.6487 57.5289 16.8701C57.1512 17.0003 56.8907 17.0524 56.7344 17.0524C56.5391 17.0524 56.3437 16.8831 56.1483 16.5575C55.966 16.2319 55.8618 15.9063 55.8618 15.5807C55.8618 15.4505 55.953 15.3332 56.1223 15.216C56.2916 15.0988 56.5781 15.0207 56.9558 14.9686C58.4666 14.7732 59.756 14.6169 60.8239 14.5127C61.8919 14.4085 63.1422 14.3564 64.5748 14.3564C69.1593 14.3564 72.8841 14.8774 75.7624 15.9063C78.6407 16.9352 80.0864 18.6804 80.0864 21.155C80.0864 23.1216 79.5264 24.984 78.3933 26.7422C77.2602 28.5005 75.4238 30.5062 72.8841 32.7463Z" fill="white"/>
<path d="M102.657 27.9536C102.475 28.1098 102.11 28.2401 101.563 28.3443C101.003 28.4615 100.638 28.5266 100.43 28.5527C100.625 29.5034 100.729 29.9723 100.729 29.9462C100.899 30.5714 101.094 31.444 101.289 32.551C101.745 35.0907 102.201 37.2527 102.683 39.0369C102.813 39.61 102.878 39.9486 102.878 40.0528C102.878 40.3003 102.774 40.5217 102.579 40.691C102.383 40.8603 102.136 40.9515 101.862 40.9515C101.615 40.9515 101.381 40.8212 101.185 40.5608C100.99 40.3003 100.847 40.0658 100.768 39.8575C100.547 38.9979 100.339 38.0471 100.143 36.9922C99.961 35.9372 99.7395 34.6609 99.4791 33.1762C99.3749 32.525 99.2186 31.7175 98.9842 30.7407C98.7628 29.7769 98.6065 29.1387 98.5283 28.8392C97.0436 29.0345 94.4909 29.4383 90.8702 30.0504L88.6822 30.4281L87.8877 32.6552L86.8328 35.6768C85.9472 38.4248 85.322 40.5347 84.9443 42.0194C84.8662 42.3711 84.7229 42.6706 84.4885 42.9051C84.2671 43.1395 83.9806 43.2697 83.655 43.2697C83.3814 43.2697 83.147 43.1916 82.9517 43.0483C82.7693 42.892 82.6651 42.6837 82.6651 42.4102C82.6651 42.1366 82.8214 41.5506 83.121 40.6519C83.4205 39.7533 83.6029 39.2193 83.655 39.05C83.7591 38.8025 83.9545 38.2164 84.2541 37.3178C84.5797 36.341 84.9964 35.1428 85.5174 33.7492C86.0383 32.3556 86.377 31.431 86.5593 30.9751C85.2829 31.2747 84.3192 31.5221 83.694 31.6914C82.7433 31.9389 82.1442 32.0691 81.9228 32.0691C81.6493 32.0691 81.4409 31.9649 81.2976 31.7435C81.1544 31.5351 81.0892 31.3007 81.0892 31.0402C81.0892 30.7407 81.1674 30.5323 81.3106 30.4151C81.4669 30.2979 81.7144 30.1937 82.066 30.0895C83.0168 29.8681 84.0326 29.6336 85.1006 29.4122C86.1686 29.1908 86.9109 29.0345 87.3017 28.9564C87.5491 28.2271 87.7445 27.6149 87.8617 27.107C87.9659 26.7814 88.0961 26.3646 88.2524 25.8827C88.4217 25.3878 88.6041 24.7887 88.7994 24.0464L89.3594 22.1188C90.3102 18.7456 90.8702 16.8181 91.0135 16.3492C91.1437 15.9976 91.2609 15.7241 91.3651 15.5157C91.4824 15.3203 91.6386 15.2161 91.834 15.2161C92.3419 15.2161 92.7848 15.2943 93.1885 15.4375C93.2406 15.3854 93.3187 15.2812 93.4359 15.1119C93.5532 14.9426 93.6704 14.8384 93.8136 14.7733C93.9569 14.7082 94.1392 14.6821 94.3607 14.6821C94.8165 14.6821 95.3374 15.2031 95.9235 16.232C96.5096 17.2609 97.0827 18.4851 97.6427 19.8917C97.9683 20.7252 98.3851 21.9625 98.893 23.6035C99.4009 25.2576 99.7265 26.3386 99.8698 26.8726C100.247 26.8205 100.573 26.7554 100.834 26.6642C101.094 26.573 101.263 26.5209 101.341 26.4949C101.472 26.4428 101.602 26.3516 101.758 26.2344C101.915 26.1041 102.045 26.013 102.175 25.9479C102.305 25.8827 102.436 25.8958 102.592 25.9609C102.917 26.1172 103.087 26.4298 103.087 26.8986C103.087 27.081 103.048 27.2633 102.956 27.4586C102.865 27.654 102.748 27.8103 102.605 27.9145L102.657 27.9536ZM96.2752 20.8294C95.9235 19.9047 95.4677 18.941 94.9207 17.9642C94.3607 16.9874 93.9048 16.3622 93.5271 16.1148L93.1104 17.0916C92.6285 18.0423 92.2638 18.9149 92.0163 19.6964C91.4172 21.5067 90.4535 24.5022 89.1511 28.6829L93.5662 27.9275L97.1868 27.3675L98.2027 27.2112C98.0725 26.7553 97.812 25.8046 97.4083 24.3589C97.0045 22.9133 96.6268 21.7411 96.2752 20.8294Z" fill="white"/>
<path d="M126.204 36.6796C124.967 36.6796 122.336 35.833 118.312 34.1529L117.296 33.6971C115.863 33.098 114.743 32.6421 113.962 32.3426C113.167 32.043 112.412 31.7956 111.683 31.5872C111.683 34.713 111.604 36.901 111.461 38.1513C111.188 39.1541 110.823 39.6621 110.367 39.6621C110.146 39.6621 109.937 39.5969 109.742 39.4797C109.56 39.3495 109.455 39.1932 109.455 38.9848C109.455 38.529 109.495 37.9168 109.573 37.1354C109.729 35.5204 109.794 34.1399 109.794 32.9808V31.3918C109.547 31.2225 109.364 31.0532 109.247 30.923C109.13 30.7797 109.078 30.6234 109.078 30.4541C109.078 30.2327 109.143 30.0243 109.286 29.829C109.429 29.6466 109.586 29.4643 109.755 29.295C109.937 29.1257 110.055 28.9954 110.133 28.9043C110.159 28.3703 110.172 27.4586 110.172 26.1432C110.172 22.8742 109.703 19.4098 108.778 15.7631L108.622 15.0077C108.622 14.656 108.765 14.3825 109.052 14.1742C109.338 13.9788 109.677 13.8746 110.055 13.8746C110.328 13.8746 110.615 14.4216 110.901 15.5026C111.188 16.5836 111.422 17.9641 111.604 19.6312C111.787 21.2983 111.865 22.9784 111.865 24.6715V27.1981C112.217 26.8204 113.011 25.9478 114.248 24.5933C115.486 23.2388 116.684 21.8713 117.869 20.5168C119.862 18.1725 121.385 16.0887 122.466 14.2523C122.74 13.7444 123.079 13.0932 123.482 12.2857C123.86 11.5042 124.094 11.1135 124.199 11.1135C124.472 11.1135 124.615 11.4131 124.615 12.0252C124.615 12.7545 124.498 13.4578 124.277 14.1221C124.055 14.7863 123.73 15.5026 123.3 16.258C122.597 17.4953 121.789 18.7065 120.864 19.9047C119.94 21.1029 118.781 22.4574 117.374 23.9552C116.84 24.5022 116.384 24.984 115.98 25.3878C115.577 25.7915 115.225 26.1562 114.926 26.4818C113.623 27.7842 112.568 28.8782 111.8 29.7638C112.125 29.8941 112.881 30.1676 114.079 30.5974C115.277 31.0272 116.827 31.5611 118.742 32.2254C120.096 32.7073 121.229 33.0849 122.141 33.3715C123.053 33.658 123.821 33.9185 124.485 34.1399C124.641 34.192 124.811 34.2441 125.019 34.3092C125.214 34.3743 125.436 34.4394 125.657 34.5176C126.517 34.7911 126.934 35.0906 126.934 35.4293C126.934 35.7679 126.856 36.0414 126.712 36.3019C126.556 36.5493 126.4 36.6796 126.217 36.6796H126.204Z" fill="white"/>
<path d="M148.996 29.321C148.54 29.4773 147.993 29.5684 147.355 29.6075C146.717 29.6466 146.287 29.6596 146.092 29.6596C146.066 30.441 146.014 31.3136 145.935 32.2644C145.857 33.2151 145.792 34.0096 145.753 34.6478L145.636 35.8199L145.558 37.0312L145.336 39.9355C145.232 41.2249 144.815 41.8631 144.086 41.8631C143.812 41.8631 143.539 41.5375 143.279 40.8993C143.018 40.2611 142.888 39.7401 142.888 39.3364C142.888 39.2322 142.992 39.0369 143.187 38.7373C143.383 38.4378 143.513 38.0601 143.565 37.6042C143.669 36.9009 143.773 35.7288 143.904 34.1008C144.034 32.4598 144.112 31.0922 144.164 29.9852C143.187 30.0633 142.132 30.1675 140.999 30.3238C140.491 30.3759 139.358 30.4931 137.6 30.6625C135.842 30.8448 134.461 30.949 133.445 31.0011C133.341 32.6551 133.237 34.6869 133.107 37.0833C132.977 39.4667 132.911 40.9384 132.911 41.4593C132.911 41.6547 132.937 41.9282 133.003 42.2538C133.068 42.5794 133.094 42.8268 133.094 43.0092C133.094 43.2306 132.924 43.465 132.586 43.6864C132.247 43.9078 131.974 44.025 131.778 44.025C131.531 44.025 131.323 43.8557 131.153 43.5301C130.984 43.2045 130.906 42.8268 130.906 42.397C130.906 42.1756 130.932 41.7979 130.984 41.29C131.036 40.769 131.075 40.3262 131.101 39.9485C131.205 39.2713 131.27 38.7113 131.296 38.2945C131.427 36.8098 131.518 35.3771 131.596 33.9966C131.674 32.616 131.726 31.6783 131.752 31.2095C130.163 31.483 128.666 31.6262 127.259 31.6262C126.777 31.6262 126.373 31.509 126.035 31.2616C125.696 31.0271 125.527 30.6755 125.527 30.2196C125.527 29.894 125.605 29.6466 125.774 29.4903C125.944 29.321 126.269 29.2428 126.777 29.2428L128.783 29.2819C130.085 29.334 131.153 29.3601 131.948 29.3601C132.078 27.2241 132.143 25.505 132.143 24.2286C132.143 21.3112 132.117 18.6934 132.065 16.3752V14.9816C132.065 14.6039 132.208 14.2913 132.495 14.0569C132.781 13.8225 133.12 13.6922 133.498 13.6922C133.771 13.6922 133.966 13.9006 134.058 14.3304C134.162 14.7602 134.214 15.2421 134.214 15.763C134.214 16.284 134.149 17.4431 134.018 19.1623C133.862 22.0797 133.797 23.6295 133.797 23.7988L133.615 29.1907C135.725 29.1386 139.306 28.813 144.373 28.2139C144.477 27.4846 144.646 25.5701 144.907 22.4834C145.011 20.8424 145.102 19.6572 145.167 18.9018L145.388 15.9584C145.714 12.2596 145.883 9.94132 145.883 9.01662C145.883 8.69102 146.014 8.43054 146.261 8.22216C146.508 8.0268 146.795 7.92261 147.134 7.92261C147.589 7.92261 147.811 8.36542 147.811 9.23803C147.811 9.78503 147.681 11.2698 147.433 13.6532C147.16 16.7789 147.003 18.5111 146.977 18.8627C146.821 20.8033 146.678 22.6527 146.548 24.4109C146.404 26.1692 146.313 27.3544 146.261 27.9535C146.717 27.8753 147.121 27.7711 147.472 27.6148C147.928 27.4586 148.28 27.3934 148.527 27.3934C148.775 27.3934 149.074 27.5497 149.4 27.8493C149.725 28.1488 149.895 28.3702 149.895 28.4874C149.895 28.8912 149.608 29.1777 149.022 29.3601L148.996 29.321Z" fill="white"/>
<path d="M170.915 37.0572L164.43 37.5522L159.936 37.9298L157.592 38.1122C157.384 38.1122 157.201 37.982 157.045 37.7345C156.876 37.487 156.797 37.2396 156.797 37.0182C156.797 36.8489 156.85 36.7056 156.967 36.6275C157.084 36.5363 157.201 36.4712 157.344 36.4451C157.488 36.406 157.579 36.38 157.631 36.3539C157.657 34.9995 157.67 31.8216 157.67 26.8465C157.67 23.1737 157.527 20.3215 157.24 18.3027C156.954 16.284 156.811 15.19 156.811 15.0337C156.811 14.6821 156.941 14.4086 157.201 14.2002C157.462 14.0048 157.735 13.9006 158.009 13.9006C158.191 13.9006 158.321 13.9658 158.425 14.109C158.53 14.2523 158.595 14.4737 158.647 14.7732C158.894 15.6328 159.09 17.1957 159.233 19.4879C159.376 21.7801 159.441 24.1635 159.441 26.6641C159.441 28.774 159.441 30.7406 159.402 32.551C159.376 34.3613 159.363 35.5855 159.363 36.2107C159.689 36.1846 160.314 36.1456 161.252 36.0804C162.176 36.0153 163.14 35.9502 164.117 35.8721C165.576 35.6897 167.23 35.4293 169.066 35.0776C170.551 34.8041 171.449 34.6608 171.749 34.6608C172.023 34.6608 172.205 34.7911 172.283 35.0385C172.361 35.286 172.4 35.5986 172.4 35.9502C172.4 36.2758 172.257 36.5363 171.97 36.7447C171.684 36.94 171.332 37.0572 170.928 37.0833L170.915 37.0572Z" fill="white"/>
<path d="M195.336 27.9536C195.153 28.1098 194.789 28.2401 194.241 28.3443C193.681 28.4615 193.317 28.5266 193.108 28.5527C193.304 29.5034 193.408 29.9723 193.408 29.9462C193.577 30.5714 193.773 31.444 193.968 32.551C194.424 35.0907 194.88 37.2527 195.362 39.0369C195.492 39.61 195.557 39.9486 195.557 40.0528C195.557 40.3003 195.453 40.5217 195.257 40.691C195.062 40.8603 194.815 40.9515 194.541 40.9515C194.294 40.9515 194.059 40.8212 193.864 40.5608C193.668 40.3003 193.525 40.0658 193.447 39.8575C193.226 38.9979 193.017 38.0471 192.822 36.9922C192.64 35.9372 192.418 34.6609 192.158 33.1762C192.053 32.525 191.897 31.7175 191.663 30.7407C191.441 29.7769 191.285 29.1387 191.207 28.8392C189.722 29.0345 187.169 29.4383 183.549 30.0504L181.361 30.4281L180.566 32.6552L179.511 35.6768C178.626 38.4248 178.001 40.5347 177.623 42.0194C177.545 42.3711 177.402 42.6706 177.167 42.9051C176.946 43.1395 176.659 43.2697 176.334 43.2697C176.06 43.2697 175.826 43.1916 175.63 43.0483C175.448 42.892 175.344 42.6837 175.344 42.4102C175.344 42.1366 175.5 41.5506 175.8 40.6519C176.099 39.7533 176.281 39.2193 176.334 39.05C176.438 38.8025 176.633 38.2164 176.933 37.3178C177.258 36.341 177.675 35.1428 178.196 33.7492C178.717 32.3556 179.056 31.431 179.238 30.9751C177.962 31.2747 176.998 31.5221 176.373 31.6914C175.422 31.9389 174.823 32.0691 174.601 32.0691C174.328 32.0691 174.119 31.9649 173.976 31.7435C173.833 31.5351 173.768 31.3007 173.768 31.0402C173.768 30.7407 173.846 30.5323 173.989 30.4151C174.146 30.2979 174.393 30.1937 174.745 30.0895C175.695 29.8681 176.711 29.6336 177.779 29.4122C178.847 29.1908 179.59 29.0345 179.98 28.9564C180.228 28.2271 180.423 27.6149 180.54 27.107C180.644 26.7814 180.775 26.3646 180.931 25.8827C181.1 25.3878 181.283 24.7887 181.478 24.0464L182.038 22.1188C182.989 18.7456 183.549 16.8181 183.692 16.3492C183.822 15.9976 183.94 15.7241 184.044 15.5157C184.161 15.3203 184.317 15.2161 184.513 15.2161C185.021 15.2161 185.463 15.2943 185.867 15.4375C185.919 15.3854 185.997 15.2812 186.115 15.1119C186.232 14.9426 186.349 14.8384 186.492 14.7733C186.636 14.7082 186.818 14.6821 187.039 14.6821C187.495 14.6821 188.016 15.2031 188.602 16.232C189.188 17.2609 189.761 18.4851 190.321 19.8917C190.647 20.7252 191.064 21.9625 191.572 23.6035C192.08 25.2576 192.405 26.3386 192.548 26.8726C192.926 26.8205 193.252 26.7554 193.512 26.6642C193.773 26.573 193.942 26.5209 194.02 26.4949C194.15 26.4428 194.281 26.3516 194.437 26.2344C194.593 26.1041 194.723 26.013 194.854 25.9479C194.984 25.8827 195.114 25.8958 195.27 25.9609C195.596 26.1172 195.765 26.4298 195.765 26.8986C195.765 27.081 195.726 27.2633 195.635 27.4586C195.544 27.654 195.427 27.8103 195.283 27.9145L195.336 27.9536ZM188.954 20.8294C188.602 19.9047 188.146 18.941 187.599 17.9642C187.039 16.9874 186.583 16.3622 186.206 16.1148L185.789 17.0916C185.307 18.0423 184.942 18.9149 184.695 19.6964C184.096 21.5067 183.132 24.5022 181.83 28.6829L186.245 27.9275L189.865 27.3675L190.881 27.2112C190.751 26.7553 190.491 25.8046 190.087 24.3589C189.683 22.9133 189.305 21.7411 188.954 20.8294Z" fill="white"/>
<path d="M74.5057 54.9742C74.9876 54.8961 75.3523 54.7008 75.6128 54.4012C75.8732 54.1016 76.0035 53.7239 76.0035 53.2551V52.148C76.0035 51.4708 75.8081 50.9498 75.4304 50.5852C75.0527 50.2205 74.5057 50.0251 73.8155 50.0251H71.1586V60.288H73.9717C74.662 60.288 75.196 60.1057 75.5737 59.728C75.9514 59.3503 76.1467 58.8293 76.1467 58.1521V56.7585C76.1467 56.2506 76.0035 55.8469 75.717 55.5343C75.4304 55.2217 75.0267 55.0394 74.5188 54.9612L74.5057 54.9742ZM72.9168 51.6662H73.6331C73.8415 51.6662 73.9978 51.7183 74.115 51.8355C74.2322 51.9527 74.2843 52.109 74.2843 52.3174V53.4244C74.2843 53.6719 74.2322 53.8542 74.115 53.9844C73.9978 54.1147 73.8415 54.1798 73.6331 54.1798H72.9168V51.6531V51.6662ZM74.3755 57.9958C74.3755 58.2042 74.3104 58.3605 74.1932 58.4777C74.0759 58.5949 73.9066 58.647 73.6852 58.647H72.9038V55.8078H73.6592C73.8936 55.8078 74.0629 55.8729 74.1932 56.0162C74.3104 56.1594 74.3755 56.3548 74.3755 56.6153V57.9958Z" fill="white"/>
<path d="M79.7284 50.0381H78.96V60.301H79.7284H80.7052H83.5183V58.5948H80.7052V56.0421H83.1667V54.349H80.7052V51.7442H83.5183V50.0381H80.7052H79.7284Z" fill="white"/>
<path d="M88.0898 54.2839L87.126 50.0381H85.3027L87.2302 56.3677V60.301H88.9754V56.3677L90.8248 50.0381H89.0015L88.0898 54.2839Z" fill="white"/>
<path d="M96.6465 56.3417L94.4194 50.0381H93.0389V60.2879H94.6408V54.336L96.8419 60.2879H98.2354V50.0381H96.6465V56.3417Z" fill="white"/>
<path d="M103.888 50.0381H101.231V60.301H103.875C104.37 60.301 104.787 60.2098 105.138 60.0275C105.49 59.8451 105.75 59.5847 105.933 59.246C106.115 58.9074 106.206 58.4906 106.206 58.0087V52.3433C106.206 51.614 105.998 51.0539 105.594 50.6502C105.19 50.2465 104.617 50.0511 103.875 50.0511L103.888 50.0381ZM104.448 57.8004C104.448 58.0608 104.383 58.2562 104.253 58.3995C104.122 58.5427 103.94 58.6209 103.706 58.6209H102.976V51.7182H103.706C103.94 51.7182 104.122 51.7833 104.253 51.9266C104.383 52.0698 104.448 52.2652 104.448 52.5387V57.8004Z" fill="white"/>
<path d="M115.805 50.0381L113.356 60.301H115.088L115.401 58.699H117.433L117.745 60.301H119.478L117.029 50.0381H115.805ZM115.727 57.071L116.417 53.5806L117.107 57.071H115.727Z" fill="white"/>
<path d="M124.635 50.0381H121.978V60.301H124.622C125.117 60.301 125.534 60.2098 125.885 60.0275C126.237 59.8451 126.497 59.5847 126.68 59.246C126.862 58.9074 126.953 58.4906 126.953 58.0087V52.3433C126.953 51.614 126.745 51.0539 126.341 50.6502C125.937 50.2465 125.364 50.0511 124.622 50.0511L124.635 50.0381ZM125.195 57.8004C125.195 58.0608 125.13 58.2562 125 58.3995C124.869 58.5427 124.687 58.6209 124.453 58.6209H123.723V51.7182H124.453C124.687 51.7182 124.869 51.7833 125 51.9266C125.13 52.0698 125.195 52.2652 125.195 52.5387V57.8004Z" fill="white"/>
<path d="M132.163 57.1231L131.186 50.0381H129.324L131.212 60.301H133.114L135.002 50.0381H133.14L132.163 57.1231Z" fill="white"/>
<path d="M138.206 50.0381H137.425V60.301H138.206H139.183H141.983V58.5948H139.183V56.0421H141.631V54.349H139.183V51.7442H141.983V50.0381H139.183H138.206Z" fill="white"/>
<path d="M148.221 56.3417L146.007 50.0381H144.627V60.2879H146.229V54.336L148.43 60.2879H149.823V50.0381H148.221V56.3417Z" fill="white"/>
<path d="M152.676 51.7182H154.369V60.301H156.114V51.7182H157.82V50.0381H152.676V51.7182Z" fill="white"/>
<path d="M163.147 57.8655C163.147 58.1129 163.082 58.3083 162.965 58.4516C162.834 58.5948 162.665 58.6599 162.444 58.6599C162.222 58.6599 162.053 58.5948 161.936 58.4516C161.818 58.3083 161.753 58.1129 161.753 57.8655V50.0381H159.995V57.8134C159.995 58.6339 160.216 59.2721 160.646 59.7279C161.076 60.1838 161.675 60.4052 162.444 60.4052C163.212 60.4052 163.824 60.1838 164.254 59.7279C164.684 59.2721 164.905 58.6339 164.905 57.8134V50.0381H163.147V57.8655Z" fill="white"/>
<path d="M171.587 55.6775C171.977 55.4952 172.277 55.2217 172.485 54.857C172.694 54.4924 172.798 54.0626 172.798 53.5546V52.3564C172.798 51.8615 172.694 51.4448 172.485 51.0931C172.277 50.7415 171.977 50.481 171.587 50.2986C171.196 50.1163 170.714 50.0251 170.167 50.0251H167.64V60.3011H169.359V55.9641H169.946L171.209 60.3011H173.084L171.56 55.6775C171.56 55.6775 171.56 55.6775 171.574 55.6775H171.587ZM171 53.5937C171 53.8021 170.935 53.9714 170.805 54.0886C170.675 54.2058 170.493 54.271 170.271 54.271H169.359V51.7052H170.271C170.506 51.7052 170.675 51.7704 170.805 51.9006C170.935 52.0308 171 52.2132 171 52.4476V53.5937Z" fill="white"/>
<path d="M180.469 51.7442V50.0381H177.656H176.679H175.91V60.301H176.679H177.656H180.469V58.5948H177.656V56.0421H180.117V54.349H177.656V51.7442H180.469Z" fill="white"/>
</svg>
