<svg width="103" height="103" viewBox="0 0 103 103" fill="none" xmlns="http://www.w3.org/2000/svg">
<path d="M43.8873 16.0194C45.678 15.6258 46.1812 14.2178 45.5518 11.3781C44.9566 8.67688 43.8733 7.60385 42.1777 7.9794C40.5696 8.32982 39.8726 9.67101 40.4934 12.4743C41.1315 15.3505 42.2135 16.3868 43.8873 16.0194ZM42.4032 9.16331C43.2511 8.97921 43.7164 9.86048 44.1182 11.6635C44.5461 13.5834 44.5247 14.6582 43.6621 14.8428C42.8436 15.0259 42.3211 13.9848 41.9181 12.145C41.5336 10.4149 41.5773 9.34664 42.4105 9.16305L42.4032 9.16331Z" fill="white"/>
<path d="M51.9192 12.5461C51.9312 13.3108 51.7625 13.9641 50.9161 13.9789C50.0402 13.9948 49.8658 13.2211 49.8506 12.5742L49.748 7.10444L48.3201 7.13223L48.424 12.6388C48.4543 14.1385 49.0222 15.2148 50.914 15.1855C52.835 15.1478 53.3761 13.9813 53.3481 12.5477L53.2442 7.0412L51.8164 7.069L51.9195 12.5535L51.9192 12.5461Z" fill="white"/>
<path d="M59.4406 7.74441L57.0327 7.3356L55.6863 15.1807L57.0866 15.4187L57.6621 12.0734L58.2623 12.1775C59.1515 12.3304 59.3274 12.7288 59.1503 13.7723L59.1014 14.0609C58.985 14.7344 58.8965 15.3629 58.954 15.7434L60.3172 15.9753C60.3244 15.5484 60.3418 15.202 60.4949 14.3139L60.5503 14.003C60.7455 12.8412 60.5491 12.2816 59.9904 11.8891C60.4292 11.8002 61.1226 11.4082 61.3187 10.2757C61.5571 8.87699 60.8782 7.99583 59.4482 7.7515L59.4406 7.74441ZM59.8981 10.0899C59.7638 10.8818 59.3694 11.1898 58.5173 11.043L57.8577 10.9263L58.2366 8.69868L59.0367 8.83259C59.7554 8.95462 60.014 9.40171 59.8976 10.0752L59.8981 10.0899Z" fill="white"/>
<path d="M71.7719 16.2374C72.989 13.7599 72.8182 12.243 71.2596 11.4808C69.7835 10.7599 68.398 11.3674 67.1327 13.9423C65.833 16.5846 66.0322 18.0711 67.5684 18.8266C69.217 19.6372 70.4858 18.8498 71.7719 16.2374ZM68.1281 17.7698C67.3786 17.3987 67.6189 16.2648 68.451 14.5731C69.2349 12.9787 69.9358 12.1671 70.7002 12.545C71.4796 12.9298 71.2928 13.9074 70.4744 15.5692C69.608 17.3356 68.9225 18.1614 68.1281 17.7698Z" fill="white"/>
<path d="M77.7533 19.6407L75.7272 18.1445L76.9439 16.4982L79.0986 18.093L79.8443 17.0885L76.5482 14.6582L71.8073 21.0475L72.9488 21.8904L74.9955 19.1264L77.0219 20.63L77.7533 19.6407Z" fill="white"/>
<path d="M77.5351 25.8353L80.0147 23.4461L81.7647 25.2609L82.6481 24.4061L80.8981 22.5913L82.3731 21.1714L84.2302 23.1002L85.1355 22.2373L82.2851 19.2838L76.5492 24.8103L77.5351 25.8353Z" fill="white"/>
<path d="M82.9076 32.6806L84.0228 32.1341L82.4007 29.763L84.3143 28.4603L85.758 30.5727L86.7795 29.875L85.3431 27.7623L86.9474 26.6689L88.4535 28.8822L89.4823 28.1842L87.1843 24.8068L80.5944 29.2891L82.9076 32.6806Z" fill="white"/>
<path d="M84.5045 35.803L87.6085 34.4219L87.8563 34.9797C88.2237 35.7982 87.9937 36.174 87.0219 36.6052L86.7535 36.7249C86.1299 37.0042 85.5577 37.2817 85.272 37.5344L85.8315 38.7949C86.1916 38.5617 86.4876 38.3895 87.3144 38.0222L87.6045 37.8944C88.6779 37.4155 89.0369 36.9395 89.0498 36.2548C89.37 36.5674 90.0748 36.9253 91.1266 36.4619C92.4249 35.8869 92.7783 34.8299 92.1946 33.5113L91.2037 31.2874L83.922 34.5212L84.4976 35.8179L84.5045 35.803ZM90.7272 33.0403L91.055 33.7792C91.3508 34.4457 91.1237 34.9024 90.4927 35.1819C89.7602 35.5091 89.2833 35.3492 88.9319 34.5669L88.6602 33.9585L90.7272 33.0403Z" fill="white"/>
<path d="M94.8514 41.0474C94.5226 39.6464 93.4852 39.0426 92.236 39.3364C91.0817 39.6048 90.6479 40.2599 90.3312 41.735C90.0894 42.8248 89.794 43.2251 89.1584 43.3723C88.5813 43.5102 88.0899 43.3581 87.9334 42.6721C87.7688 41.9642 88.2706 41.5715 88.9037 41.3508L88.5756 39.9718C87.4231 40.2916 86.4057 41.107 86.8288 42.8872C87.2099 44.5218 88.3991 45.0394 89.6191 44.754C90.9195 44.4511 91.3933 43.6768 91.7151 42.1354C91.9229 41.1276 92.1257 40.8189 92.6883 40.6889C93.2144 40.5676 93.6325 40.7295 93.762 41.2768C93.9264 41.9773 93.3025 42.2492 92.8658 42.3968L93.1857 43.754C94.1929 43.4908 95.273 42.7836 94.8585 41.0398L94.8514 41.0474Z" fill="white"/>
<path d="M90.6301 61.8965C87.842 60.9345 86.3897 61.3163 85.8274 62.9323C85.2252 64.6675 86.1642 65.8265 88.9224 66.7748C91.539 67.6766 93.0215 67.3158 93.583 65.6778C94.1181 64.1289 93.3437 62.8317 90.6299 61.8892L90.6301 61.8965ZM92.4563 65.261C92.1756 66.08 91.1716 66.0121 89.4271 65.4109C87.5635 64.7697 86.6668 64.1904 86.9544 63.3565C87.2288 62.5671 88.3812 62.6666 90.1703 63.2809C91.8478 63.8624 92.7373 64.4493 92.4637 65.2607L92.4563 65.261Z" fill="white"/>
<path d="M82.8705 69.3697C81.8973 71.0295 82.6197 72.1004 83.8528 72.8225L88.6121 75.6063L89.3351 74.3745L84.5983 71.6046C83.9366 71.2158 83.4631 70.7321 83.8943 70.0034C84.3391 69.2448 85.0845 69.4984 85.6483 69.8244L90.3774 72.5873L91.1004 71.3555L86.341 68.5717C85.0478 67.815 83.8226 67.7401 82.8631 69.37L82.8705 69.3697Z" fill="white"/>
<path d="M79.44 74.4773L81.993 76.7202L81.5891 77.1757C80.994 77.8513 80.565 77.8 79.7596 77.0925L79.5393 76.9016C79.0227 76.4488 78.5373 76.0464 78.1859 75.8968L77.2718 76.9292C77.6334 77.1594 77.9199 77.348 78.5964 77.9497L78.8321 78.1622C79.7137 78.9406 80.2999 79.0673 80.9238 78.7954C80.7764 79.2125 80.7379 80.0084 81.6039 80.7653C82.675 81.699 83.7832 81.5867 84.7393 80.4939L86.3474 78.6648L80.3603 73.4152L79.4252 74.4778L79.44 74.4773ZM82.8593 77.4845L84.5536 78.9702L84.0224 79.5773C83.5406 80.1238 83.0247 80.1124 82.508 79.6596C81.9003 79.1291 81.8461 78.6308 82.4128 77.9856L82.8519 77.4848L82.8593 77.4845Z" fill="white"/>
<path d="M71.0355 81.6272C69.4863 82.6083 69.4942 84.1014 71.0532 86.563C72.534 88.8948 73.919 89.538 75.3892 88.6112C76.7799 87.7313 76.9779 86.231 75.4423 83.8054C73.8676 81.315 72.4912 80.7083 71.0355 81.6272ZM74.7711 87.5734C74.0432 88.0329 73.2982 87.3674 72.3083 85.8055C71.256 84.1429 70.9111 83.125 71.6534 82.6577C72.3596 82.2137 73.2049 83.0081 74.2179 84.5986C75.1687 86.0955 75.4989 87.1139 74.7784 87.5731L74.7711 87.5734Z" fill="white"/>
<path d="M65.6231 84.6044L66.913 87.7963L64.5743 88.7387L65.0339 89.8777L67.3726 88.9353L68.1384 90.8286L65.6546 91.8349L66.1221 92.9883L69.9206 91.4579L66.9376 84.073L65.6231 84.6044Z" fill="white"/>
<path d="M59.8616 86.4462L60.5978 89.8119L58.1344 90.3467L58.3972 91.544L60.8605 91.0092L61.2986 93.0096L58.6818 93.5792L58.9454 94.7986L62.9509 93.923L61.2505 86.1475L59.8616 86.4462Z" fill="white"/>
<path d="M51.2202 87.4395L51.1086 88.6719L53.9686 88.5279L54.0933 90.8336L51.5346 90.9597L51.6 92.2007L54.1511 92.0675L54.2553 93.9986L51.5793 94.1362L51.6449 95.3846L55.7253 95.1758L55.3152 87.2302L51.2202 87.4395Z" fill="white"/>
<path d="M47.2548 90.5206L46.648 90.4388C45.7528 90.3229 45.5624 89.9323 45.7023 88.8754L45.7438 88.5871C45.8378 87.907 45.897 87.2796 45.8324 86.9066L44.4635 86.7264C44.4784 87.1526 44.4684 87.4987 44.3523 88.3929L44.3119 88.7106C44.1538 89.8785 44.3719 90.43 44.9519 90.7996C44.5213 90.9103 43.8431 91.3165 43.6916 92.4621C43.505 93.8664 44.2199 94.7243 45.6555 94.9169L48.075 95.237L49.1254 87.3508L47.7195 87.1644L47.2698 90.5274L47.2548 90.5206ZM46.8057 93.8983L46.0066 93.7938C45.2816 93.7014 45.0085 93.2622 45.1026 92.5821C45.2073 91.7839 45.5937 91.4614 46.4445 91.5715L47.1104 91.6586L46.813 93.898L46.8057 93.8983Z" fill="white"/>
<path d="M40.4412 85.4323C38.8394 84.9071 37.7824 85.6429 37.3892 86.8263C36.9694 88.0916 37.3806 88.9012 38.5304 89.9792C39.284 90.6812 39.4359 91.0217 39.256 91.565C39.0898 92.0784 38.731 92.3484 38.1944 92.1686C37.5089 91.9424 37.6106 91.2694 37.7056 90.8246L36.3792 90.3854C36.075 91.3745 36.1128 92.6679 37.8189 93.2263C39.1899 93.6787 40.2451 93.1048 40.6447 91.8917C41.0179 90.7678 40.6911 90.0583 39.5941 89.0152C38.7864 88.2415 38.6008 87.7771 38.8075 87.1593C38.994 86.5937 39.3802 86.2639 40.0434 86.4835C40.7362 86.7094 40.8027 87.3471 40.6634 87.9994L42.0121 88.4452C42.3401 87.2934 42.1775 86.0117 40.4338 85.4326L40.4412 85.4323Z" fill="white"/>
<path d="M21.3312 77.6983C19.3666 79.6502 19.043 81.1402 20.2644 82.3703C21.4246 83.5362 22.9301 83.4101 24.973 81.3819C27.0659 79.3078 27.3606 77.8335 26.1545 76.6177C24.857 75.3167 23.4029 75.647 21.3386 77.698L21.3312 77.6983ZM23.9357 80.3588C22.6757 81.6092 21.7518 82.1491 21.1489 81.5449C20.5383 80.9335 21.0308 80.0629 22.3478 78.759C23.7429 77.3713 24.659 76.817 25.2845 77.4352C25.8722 78.0253 25.2811 79.0244 23.9354 80.3514L23.9357 80.3588Z" fill="white"/>
<path d="M21.6537 71.1175C20.5887 69.5142 19.3134 69.6911 18.1184 70.4832L13.5258 73.5274L14.3185 74.7136L18.8893 71.6775C19.5301 71.2579 20.1708 71.0443 20.6373 71.7489C21.1193 72.4751 20.5645 73.0389 20.0249 73.4035L15.4612 76.432L16.2541 77.6255L20.8467 74.5813C22.0992 73.7504 22.703 72.692 21.6535 71.1102L21.6537 71.1175Z" fill="white"/>
<path d="M18.5733 65.7885L15.437 67.0898L15.2037 66.5242C14.8579 65.6902 15.0957 65.3288 16.083 64.9191L16.3516 64.8067C16.9831 64.5419 17.5634 64.2862 17.8565 64.0332L17.3259 62.757C16.9579 62.9758 16.6619 63.148 15.827 63.4935L15.5366 63.614C14.4476 64.064 14.0736 64.5332 14.046 65.2183C13.7328 64.8982 13.0419 64.5177 11.9747 64.9596C10.6607 65.5057 10.2773 66.549 10.8324 67.8906L11.7652 70.1386L19.1268 67.086L18.5802 65.7736L18.5733 65.7885ZM12.279 68.3992L11.9656 67.6524C11.6843 66.9781 11.9261 66.5209 12.5579 66.2634C13.3058 65.9578 13.7757 66.1253 14.1052 66.9156L14.3625 67.532L12.2716 68.3995L12.279 68.3992Z" fill="white"/>
<path d="M11.956 58.0965C14.891 57.7806 16.0433 56.8208 15.8584 55.1131C15.6621 53.2882 14.321 52.6361 11.4225 52.9433C8.6709 53.2381 7.4816 54.1918 7.66721 55.9215C7.84213 57.5559 9.09404 58.395 11.9557 58.0891L11.956 58.0965ZM8.87182 55.828C8.78295 54.9703 9.71273 54.5994 11.5545 54.4027C13.5137 54.1945 14.5792 54.3339 14.6685 55.2062C14.7564 56.0344 13.6658 56.4404 11.7872 56.6384C10.0188 56.8252 8.96018 56.6709 8.87156 55.8206L8.87182 55.828Z" fill="white"/>
<path d="M15.577 48.9507L12.1435 48.7028L12.3211 46.1953L11.0954 46.1057L10.918 48.6205L8.8727 48.4712L9.0667 45.8014L7.8189 45.7125L7.52703 49.7983L15.4717 50.3669L15.577 48.9507Z" fill="white"/>
<path d="M16.4507 42.9687L13.1079 42.1511L13.7073 39.7025L12.5188 39.4129L11.9194 41.8615L9.92841 41.372L10.5669 38.7748L9.34865 38.479L8.3754 42.4561L16.1159 44.3487L16.4507 42.9687Z" fill="white"/>
<path d="M19.383 34.7739L18.3293 34.1265L17.1835 36.7487L15.0598 35.8298L16.0826 33.484L14.946 32.9941L13.9229 35.3324L12.1505 34.563L13.2139 32.1129L12.0694 31.6085L10.4399 35.3511L17.7466 38.5315L19.383 34.7739Z" fill="white"/>
<path d="M21.1778 31.7539L18.3574 29.866L18.7006 29.3612C19.1975 28.6155 19.6391 28.6074 20.5216 29.2019L20.7629 29.3627C21.3361 29.7473 21.8704 30.0744 22.2353 30.1867L23.0054 29.0416C22.616 28.8566 22.3087 28.7055 21.562 28.2019L21.2981 28.0272C20.318 27.3772 19.7196 27.3246 19.1426 27.6758C19.2378 27.2384 19.1662 26.4537 18.2084 25.8104C17.0245 25.0204 15.9437 25.2862 15.1386 26.484L13.7805 28.5104L20.4016 32.936L21.1928 31.7607L21.1778 31.7539ZM17.7707 28.6727L17.3998 29.23L15.5222 27.9788L15.9701 27.3084C16.3763 26.7056 16.8899 26.6509 17.4557 27.0358C18.1269 27.4832 18.247 27.9719 17.7636 28.6803L17.7707 28.6727Z" fill="white"/>
<path d="M22.6956 22.2843C21.7288 22.6491 21.3602 22.6399 20.9486 22.2423C20.5599 21.866 20.4783 21.4274 20.8693 21.0239C21.3741 20.506 21.9399 20.8909 22.2962 21.18L23.2777 20.182C22.5238 19.4727 21.3415 18.9402 20.09 20.2198C19.08 21.2482 19.1292 22.4456 20.0443 23.3406C20.8908 24.1718 21.6721 24.1886 23.0901 23.6683C24.1374 23.286 24.6394 23.3199 25.1048 23.7819C25.5316 24.1936 25.6594 24.6894 25.1688 25.1921C24.6566 25.7103 24.0599 25.4957 23.5371 25.0799L22.5414 26.0931C23.4311 26.8933 24.661 27.3139 25.941 26.0038C27.1215 24.8002 26.9224 23.5271 26.0302 22.6534C25.0771 21.723 24.1715 21.7325 22.6956 22.2843Z" fill="white"/>
<path d="M61.0355 66.895H41.8937C41.0892 66.895 40.4321 66.2379 40.4321 65.4334V46.8347C40.4254 40.7469 45.3802 35.7988 51.4613 35.7988C57.5424 35.7988 62.4971 40.7469 62.4971 46.8347V65.4334C62.4971 66.2379 61.8401 66.895 61.0355 66.895ZM51.4613 36.5497C45.7891 36.5497 41.1764 41.1625 41.1764 46.8347V65.4334C41.1764 65.8289 41.4982 66.1441 41.887 66.1441H61.0288C61.4244 66.1441 61.7395 65.8222 61.7395 65.4334V46.8347C61.7395 41.1625 57.1267 36.5497 51.4546 36.5497H51.4613Z" fill="white"/>
<path d="M60.9287 41.9336L50.5969 40.4251C50.6103 40.2374 50.617 40.0496 50.617 39.8619C50.617 38.5947 50.3555 37.3879 49.8862 36.2883C49.6314 36.3219 49.3766 36.3688 49.1286 36.4291C49.6046 37.4751 49.8661 38.6417 49.8661 39.8619C49.8661 44.4948 46.0914 48.2695 41.4585 48.2695C41.2372 48.2695 41.0227 48.2628 40.8081 48.2427V49.0003C41.0227 49.0205 41.2372 49.0272 41.4585 49.0272C41.6931 49.0272 41.9144 49.0138 42.1423 49.0003L42.3502 53.0701L42.3703 53.4187L43.1212 53.3986V53.231L42.8865 48.9132C43.7649 48.7724 44.6096 48.5109 45.3874 48.1354L48.8671 54.8535L48.9341 54.9876L49.6113 54.6658L49.4169 54.297L46.0444 47.7868C47.2177 47.1029 48.2301 46.171 48.9945 45.058L50.684 46.3319L51.0394 46.6001L51.5355 46.0302L50.8785 45.534L49.3968 44.4144C49.9599 43.4355 50.3488 42.3426 50.5164 41.1827L61.3042 42.7516L61.512 42.7784L61.3645 42.0811L60.922 41.9336H60.9287Z" fill="white"/>
<path d="M58.179 45.802L53.5528 44.9304C53.4187 44.9036 53.2779 44.8902 53.1371 44.8835L52.4465 43.9113C52.2253 43.5962 51.8364 43.4755 51.4743 43.5895C51.1056 43.7102 50.8709 44.032 50.8709 44.4209L50.8843 45.5271V45.9964C50.8106 46.1037 50.7435 46.211 50.6899 46.325C50.5223 46.6401 50.4217 46.9753 50.4016 47.324L50.0194 52.4061C49.9591 53.157 49.7714 53.8007 49.4294 54.2834C49.2752 54.5046 49.0942 54.6924 48.8729 54.8466C48.5243 55.0947 48.0952 55.2556 47.5789 55.3025C47.4583 55.3159 47.3309 55.3226 47.1968 55.3226V56.0735C47.7801 56.0735 48.2963 55.973 48.7388 55.7785C49.9591 55.2556 50.6564 54.0554 50.7771 52.453L51.1659 47.3776C51.1927 47.0089 51.3335 46.6535 51.5749 46.3451L51.6554 46.2445L51.642 44.4142C51.642 44.3404 51.6889 44.3069 51.7224 44.3002C51.7559 44.2868 51.8163 44.2868 51.8565 44.3471L52.775 45.6411H52.9762C53.1371 45.6277 53.2846 45.6411 53.4254 45.6612L58.0516 46.5328C58.8159 46.6803 59.3657 47.3441 59.3657 48.1218C59.3657 48.4101 59.131 48.6515 58.8427 48.6515H56.8045L56.6973 48.7588C56.3285 49.1275 55.8324 49.3354 55.3094 49.3421H54.183V54.2029H54.9339V50.0997H55.3094C55.9799 50.093 56.6101 49.8449 57.1129 49.4024H58.8427C59.5467 49.4024 60.1166 48.8258 60.1166 48.1218C60.1166 46.982 59.3054 46.0032 58.1857 45.7953L58.179 45.802Z" fill="white"/>
<path d="M47.5726 55.3093C46.3993 54.8534 45.1656 54.2902 43.9588 53.5996C43.8716 53.5459 43.7845 53.5057 43.6973 53.4588C43.6705 53.4454 43.6437 53.432 43.6236 53.4253C43.5498 53.3917 43.4761 53.3582 43.3956 53.3247C43.3621 53.3113 43.3286 53.2979 43.295 53.2912C43.2347 53.2711 43.1811 53.2509 43.1274 53.2308H43.114C43.0738 53.2174 43.0403 53.2107 43 53.1973C42.9598 53.1839 42.9263 53.1772 42.8861 53.1705C42.7922 53.1504 42.705 53.1303 42.6179 53.1169C42.5978 53.1169 42.5709 53.1101 42.5575 53.1034C42.4972 53.09 42.4368 53.0833 42.3765 53.0766C42.3765 53.0766 42.3564 53.0766 42.3497 53.0766C42.2022 53.0632 42.0547 53.0498 41.9072 53.0498C41.5384 53.0498 41.1697 53.0967 40.8076 53.1906V53.9683C41.1764 53.8678 41.5451 53.8074 41.9072 53.8074C42.0346 53.8074 42.1687 53.8141 42.296 53.8275C42.343 53.8342 42.3899 53.841 42.4435 53.8477H42.4704L42.4905 53.8544C42.5642 53.8678 42.638 53.8812 42.7117 53.9013H42.7251C42.7251 53.9013 42.7788 53.9147 42.7989 53.9214C42.8324 53.9348 42.8726 53.9415 42.9062 53.9549C42.9531 53.9683 43 53.9885 43.047 54.0019L43.0671 54.0153C43.0671 54.0153 43.1006 54.0287 43.1274 54.0354C43.1878 54.0622 43.2481 54.089 43.3152 54.1158C43.3353 54.1225 43.3621 54.136 43.3755 54.1427C43.4627 54.1829 43.5297 54.2164 43.5967 54.2566C44.6829 54.8802 45.8562 55.4367 47.0966 55.9328C47.0027 55.9931 46.9088 56.0535 46.815 56.1138L46.5267 56.3016C46.3322 56.4222 46.1378 56.5496 45.9434 56.677L45.8495 56.7374L45.6819 56.8446C45.407 57.019 45.1321 57.2 44.8505 57.3877L44.6494 57.5218L44.5421 57.5889C44.3544 57.7162 44.1666 57.8369 43.9722 57.971C43.8314 58.0649 43.6839 58.1587 43.5431 58.2593L43.0671 58.5744L42.5776 58.903C42.0077 59.2784 41.4244 59.6807 40.8143 60.083V60.9948C40.8948 60.9345 40.9819 60.8808 41.0691 60.8272C41.7329 60.378 42.3698 59.9489 42.9933 59.5265C43.1609 59.4192 43.3219 59.3052 43.4828 59.198C43.6437 59.0907 43.7979 58.9901 43.9588 58.8828C44.0996 58.7823 44.2471 58.6884 44.3879 58.5945C44.5823 58.4672 44.7701 58.3398 44.9578 58.2191C45.0584 58.152 45.1656 58.0783 45.2662 58.0112C45.5478 57.8302 45.816 57.6492 46.0909 57.4749C46.178 57.4145 46.2585 57.3609 46.3524 57.3006C46.5468 57.1799 46.7412 57.0525 46.9357 56.9251C47.0295 56.8647 47.1301 56.8044 47.224 56.7441C47.4117 56.6234 47.5927 56.5094 47.7737 56.3887C47.8609 56.3351 47.9414 56.2814 48.0285 56.2278C48.2699 56.0803 48.5045 55.9328 48.7392 55.7853C48.7593 55.7719 48.7794 55.7585 48.7996 55.7518C48.404 55.6177 48.0017 55.4702 47.586 55.3093H47.5726Z" fill="white"/>
<path d="M61.7328 52.7011C61.1562 52.5402 60.5595 52.4597 59.9427 52.4597C58.4542 52.4597 56.8116 52.9089 54.9276 53.7537C54.6862 53.861 54.4315 53.9817 54.1767 54.1024C50.7104 55.7852 46.4328 58.6816 40.8076 62.4631V63.3682C40.9015 63.3078 40.9953 63.2408 41.0892 63.1804C41.2702 63.0665 41.4446 62.9458 41.6189 62.8251C50.5226 56.8311 55.8931 53.2106 59.9427 53.2106C60.4992 53.2106 61.0154 53.2777 61.5183 53.4118H61.5384C61.7328 53.4721 61.934 53.5392 62.1284 53.6196V52.8151C61.9943 52.7681 61.8669 52.7346 61.7395 52.6944L61.7328 52.7011Z" fill="white"/>
<path d="M62.1215 61.7725V63.2006C61.7059 62.6173 61.3371 61.92 60.7337 61.0887C59.5939 59.5198 58.2463 58.2928 56.2483 58.2928C56.1276 58.2928 56.0002 58.2995 55.8661 58.3062C54.4783 58.4135 52.9228 59.4393 52.6881 60.8875C53.0301 60.7668 53.372 60.7132 53.6938 60.7132C55.0951 60.7132 56.1611 61.7859 55.6918 63.442C55.3834 64.5281 54.5989 64.917 53.6938 64.917C52.487 64.917 51.0656 64.2465 50.2342 63.6565C49.6442 63.2341 49.1481 62.6575 48.5245 62.3089C48.082 62.0608 47.5993 61.8932 47.1099 61.8932C46.7612 61.8932 46.4126 61.9804 46.0907 62.1882C46.0706 62.2754 46.1176 62.2821 46.1712 62.3223C46.6606 62.7045 47.1031 62.9995 47.1836 63.6968C47.3445 65.0511 46.2651 65.6344 45.132 65.6344C44.8906 65.6344 44.6492 65.6076 44.4146 65.5607C44.1799 65.507 41.7864 64.4008 40.8008 63.9113V63.0598C40.8745 63.0866 40.9684 63.1336 41.0824 63.1805C42.0009 63.6096 44.0056 64.6421 44.2269 64.6958C44.4749 64.7561 44.79 64.8097 45.0918 64.8097C45.5343 64.8097 45.9634 64.6958 46.2114 64.327C46.5467 63.8174 46.1779 63.1537 45.6818 62.9056C45.2393 62.6911 44.4548 62.7648 45.0649 61.9871C45.5477 61.377 46.2986 61.0954 47.0495 61.0954C47.2439 61.0954 47.4384 61.1155 47.6261 61.149C49.1078 61.4373 49.7716 62.4966 50.9449 63.2274C51.5617 63.6163 52.6479 64.1326 53.5396 64.1326C54.1631 64.1326 54.6861 63.8845 54.9006 63.1671C55.2292 62.0742 54.5721 61.4641 53.6737 61.4641C53.4524 61.4641 53.2178 61.4976 52.9764 61.5781C52.7552 61.6518 52.4535 61.8463 52.2322 61.8463C52.0713 61.8463 51.9506 61.7457 51.9171 61.4373C51.7226 59.2918 53.895 57.6224 55.8594 57.4883C56.0002 57.4749 56.1276 57.4749 56.2617 57.4749C58.8363 57.4749 60.4655 59.2516 61.8131 61.2898C61.9204 61.4507 62.021 61.6116 62.1148 61.7591L62.1215 61.7725Z" fill="white"/>
</svg>
