<svg xmlns="http://www.w3.org/2000/svg" width="87" height="88" viewBox="0 0 87 88" fill="none">
 <style>
 
@keyframes rotating {
  from {
    
    -ms-transform: rotate(0deg) translate(-1138.5px, -585.5px);
    -moz-transform: rotate(0deg) translate(-1138.5px, -585.5px);
    -webkit-transform: rotate(0deg) translate(-1138.5px, -585.5px);
    -o-transform: rotate(0deg) translate(-1138.5px, -585.5px);
    transform: rotate(0deg) translate(-1138.5px, -585.5px);
     transform-origin: 50% 47%;
  }
  to {
     
    -ms-transform: rotate(360deg) translate(-1138.5px, -585.5px);
    -moz-transform: rotate(360deg) translate(-1138.5px, -585.5px);
    -webkit-transform: rotate(360deg) translate(-1138.5px, -585.5px);
    -o-transform: rotate(360deg) translate(-1138.5px, -585.5px);
    transform: rotate(360deg) translate(-1138.5px, -585.5px);
    transform-origin: 50% 47%;
  }
}

@-webkit-keyframes rotating {
  from {
  
    -webkit-transform: rotate(0deg) translate(-1138.5px, -585.5px);
    -o-transform: rotate(0deg) translate(-1138.5px, -585.5px);
    transform: rotate(0deg) translate(-1138.5px, -585.5px);
   transform-origin: 50% 47%;
  }
  to {
    -webkit-transform: rotate(360deg)  translate(-1138.5px, -585.5px);
    -o-transform: rotate(360deg)  translate(-1138.5px, -585.5px);
    transform: rotate(360deg)  translate(-1138.5px, -585.5px);
 transform-origin: 50% 47%;
  }
}

.rotating {
  -webkit-animation: rotating 15s linear infinite;
  -moz-animation: rotating 15s linear infinite;
  -ms-animation: rotating 15s linear infinite;
  -o-animation: rotating 15s linear infinite;
  animation: rotating 15s linear infinite;
}

</style>
<g clip-path="url(#clip0_487_5175)" >
<path d="M39.0981 4.11721C39.6237 6.95686 39.0762 8.33654 37.2877 8.66503C35.616 8.97163 34.5721 7.90585 34.0466 5.02969C33.5283 2.22654 34.2728 0.919858 35.8715 0.627863C37.5651 0.313968 38.6017 1.41625 39.0981 4.11721ZM35.47 4.7596C35.8131 6.60647 36.2949 7.65035 37.1052 7.49705C37.9666 7.33645 38.025 6.27797 37.6673 4.3581C37.3315 2.55503 36.9008 1.65715 36.054 1.81774C35.2218 1.97104 35.1488 3.02952 35.4627 4.7596H35.47Z" fill="white"/>
<path d="M43.4053 0.0218753L43.3177 5.45299C43.3104 6.10268 43.4564 6.86917 44.3251 6.88377C45.1646 6.89837 45.3544 6.25598 45.369 5.49679L45.4566 0.0510748L46.8727 0.0729745L46.7851 5.54059C46.7632 6.95676 46.1938 8.10285 44.2813 8.07365C42.4052 8.04445 41.8723 6.94946 41.9015 5.46029L41.9891 -0.00732422L43.4053 0.0145754V0.0218753Z" fill="white"/>
<path d="M51.0771 5.22669L50.3909 8.52623L49.0112 8.24154L50.6172 0.503662L52.9897 0.992754C54.3985 1.28475 55.0409 2.18264 54.7562 3.56231C54.5226 4.67919 53.8219 5.03689 53.3839 5.11719C53.924 5.51868 54.1065 6.08807 53.8657 7.23415L53.8 7.54075C53.6175 8.41674 53.5883 8.75983 53.5664 9.18322L52.2232 8.90583C52.1867 8.52623 52.2889 7.91304 52.4276 7.24145L52.486 6.95676C52.6977 5.92018 52.5371 5.52598 51.6611 5.34348L51.0698 5.21939L51.0771 5.22669ZM51.3107 4.1025L51.9604 4.2412C52.7999 4.4164 53.2014 4.1244 53.362 3.34332C53.5007 2.67903 53.2598 2.22643 52.5517 2.08044L51.7633 1.91984L51.3107 4.1171V4.1025Z" fill="white"/>
<path d="M64.918 9.84756C63.5529 12.3952 62.2681 13.1325 60.6622 12.2711C59.1657 11.4681 59.0197 9.98626 60.3994 7.4094C61.7426 4.89824 63.1368 4.34345 64.5749 5.10994C66.0933 5.92023 66.2174 7.4313 64.918 9.84756ZM61.6842 8.08099C60.8009 9.73077 60.5235 10.8476 61.2535 11.2418C62.02 11.6506 62.728 10.8622 63.6551 9.13948C64.5238 7.5189 64.7428 6.55532 63.9836 6.14652C63.239 5.74503 62.5163 6.52612 61.6842 8.08099Z" fill="white"/>
<path d="M69.7067 8.44604L72.8822 10.9791L72.1084 11.95L70.0279 10.2929L68.765 11.8843L70.7214 13.4392L69.9622 14.3881L68.0058 12.8333L65.8816 15.505L64.7793 14.629L69.6994 8.44604H69.7067Z" fill="white"/>
<path d="M75.2324 13.2346L77.9479 16.2568L77.0281 17.0817L75.2543 15.1034L73.7432 16.4612L75.4149 18.3226L74.5097 19.1402L72.838 17.2788L70.2976 19.5636L69.356 18.5197L75.2324 13.2346Z" fill="white"/>
<path d="M78.2838 24.5568L76.9261 22.4106L74.9843 23.637L76.5027 26.0459L75.3785 26.5496L73.2031 23.1041L79.8898 18.8848L82.0506 22.3157L80.9994 22.98L79.5832 20.7316L77.9554 21.7609L79.3131 23.9071L78.2765 24.5641L78.2838 24.5568Z" fill="white"/>
<path d="M79.9849 28.4404L76.8606 29.7033L76.335 28.3966L83.664 25.4402L84.5692 27.6812C85.1094 29.0098 84.7152 30.0464 83.4085 30.572C82.3501 30.9954 81.6639 30.6158 81.3573 30.2946C81.3208 30.9662 80.9485 31.4334 79.8681 31.8714L79.5761 31.9882C78.7439 32.324 78.4519 32.4919 78.0796 32.7036L77.5686 31.4334C77.8606 31.1925 78.43 30.937 79.0651 30.6815L79.3352 30.572C80.3134 30.1778 80.5543 29.8201 80.2185 28.9879L79.9922 28.4258L79.9849 28.4404ZM81.0434 28.0097L81.2916 28.6229C81.6128 29.4113 82.08 29.5865 82.8173 29.2872C83.445 29.0317 83.6932 28.5864 83.4231 27.9148L83.1239 27.1703L81.0434 28.0097Z" fill="white"/>
<path d="M81.0288 35.3679C80.401 35.565 79.8827 35.93 80.0214 36.6454C80.1601 37.3316 80.6346 37.4995 81.2113 37.3827C81.8464 37.2586 82.153 36.8717 82.4304 35.7986C82.7954 34.3459 83.2553 33.7181 84.4014 33.4845C85.6423 33.2363 86.6497 33.8714 86.9344 35.273C87.2775 37.0177 86.1825 37.682 85.1825 37.9082L84.9124 36.5505C85.3503 36.4191 85.9781 36.1709 85.8394 35.4701C85.7299 34.9226 85.3212 34.7474 84.7956 34.8496C84.2408 34.9591 84.0291 35.2584 83.7809 36.2512C83.4159 37.7696 82.9122 38.5214 81.6128 38.7769C80.3937 39.0178 79.2403 38.463 78.9119 36.8279C78.5615 35.0467 79.5907 34.2729 80.7441 33.9955L81.0215 35.3752L81.0288 35.3679Z" fill="white"/>
<path d="M80.1675 60.5964C77.4738 59.5598 76.5832 58.37 77.2329 56.6764C77.8461 55.0923 79.2988 54.7638 82.0289 55.815C84.6861 56.837 85.4161 58.151 84.8248 59.6766C84.2043 61.2826 82.7224 61.5892 80.1675 60.6037V60.5964ZM81.5252 57.1655C79.7733 56.4939 78.6345 56.3552 78.3352 57.129C78.0213 57.9466 78.8973 58.5452 80.715 59.2532C82.4304 59.9102 83.4159 60.0124 83.7225 59.2094C84.0291 58.4211 83.1604 57.8006 81.5179 57.1655H81.5252Z" fill="white"/>
<path d="M81.4155 66.3997L76.8239 63.4943C76.2764 63.1512 75.5391 62.8738 75.0792 63.6111C74.6266 64.3192 75.0792 64.8229 75.7216 65.2244L80.3205 68.1371L79.5614 69.3342L74.9405 66.407C73.7434 65.6478 73.0645 64.5601 74.0864 62.9468C75.0938 61.3628 76.2983 61.4796 77.5612 62.2752L82.182 65.2025L81.4228 66.3997H81.4155Z" fill="white"/>
<path d="M72.9551 70.2176L70.5024 67.9036L71.466 66.8816L77.2183 72.2981L75.5612 74.0574C74.5757 75.1013 73.4734 75.1816 72.4441 74.218C71.6119 73.4369 71.6704 72.6485 71.8382 72.2397C71.2105 72.4879 70.6338 72.3419 69.787 71.5389L69.5607 71.3199C68.911 70.7067 68.6336 70.5023 68.2832 70.2614L69.2249 69.2687C69.568 69.4365 70.0352 69.8453 70.5316 70.3125L70.7433 70.5096C71.5098 71.2323 71.9404 71.3053 72.5536 70.6556L72.9697 70.2176H72.9551ZM73.7873 71.006L73.3347 71.4878C72.7507 72.1083 72.7872 72.6047 73.3712 73.1522C73.8676 73.6194 74.3786 73.6559 74.875 73.123L75.4225 72.539L73.7946 71.006H73.7873Z" fill="white"/>
<path d="M61.7715 79.6051C60.3116 77.1086 60.3554 75.6267 61.9248 74.7069C63.3921 73.8455 64.7353 74.4952 66.2172 77.021C67.6552 79.481 67.407 80.9629 65.9982 81.7878C64.509 82.6565 63.1585 81.9776 61.7715 79.6051ZM64.9689 77.7656C64.0199 76.145 63.2096 75.3274 62.4942 75.7508C61.7423 76.1888 62.0489 77.2108 63.0344 78.897C63.9615 80.4811 64.6769 81.1746 65.4142 80.7366C66.1442 80.3059 65.8522 79.2839 64.9616 77.7656H64.9689Z" fill="white"/>
<path d="M60.4797 84.4232L56.6546 85.8102L56.2312 84.6422L58.7277 83.737L58.0342 81.8244L55.6837 82.6785L55.2676 81.5324L57.6181 80.6784L56.4502 77.4664L57.7714 76.9846L60.4724 84.4159L60.4797 84.4232Z" fill="white"/>
<path d="M53.4864 86.6276L49.4861 87.3576L49.2671 86.1386L51.8805 85.6641L51.5155 83.6639L49.0554 84.1092L48.8364 82.912L51.2965 82.4667L50.6833 79.1088L52.0703 78.8533L53.4864 86.6276Z" fill="white"/>
<path d="M42.2737 83.2915L44.8068 83.2477L44.7703 80.9556L41.9233 80.9994L42.0766 79.7803L46.1427 79.7146L46.2741 87.6131L42.2226 87.6788L42.2007 86.4378L44.8579 86.394L44.8287 84.4741L42.2956 84.5179L42.2737 83.2915Z" fill="white"/>
<path d="M38.0469 82.7076L38.6089 79.3861L39.9959 79.6197L38.6819 87.4087L36.2949 87.0072C34.8787 86.7663 34.1998 85.8976 34.4334 84.5033C34.6232 83.3792 35.3094 82.9923 35.7401 82.8974C35.1853 82.5105 34.9809 81.9557 35.178 80.8023L35.2291 80.4884C35.3751 79.6051 35.3897 79.262 35.397 78.8386L36.7475 79.0649C36.7986 79.4445 36.7183 80.065 36.6015 80.7293L36.5504 81.014C36.3752 82.0579 36.5504 82.4448 37.4337 82.5981L38.0323 82.7003L38.0469 82.7076ZM37.8571 83.839L37.2001 83.7295C36.3606 83.5908 35.9664 83.8974 35.835 84.6858C35.7255 85.3574 35.981 85.8027 36.6891 85.9195L37.4775 86.0509L37.8498 83.839H37.8571Z" fill="white"/>
<path d="M31.6014 79.9774C31.762 79.335 31.7182 78.7072 31.0393 78.4517C30.3823 78.2108 29.9954 78.532 29.791 79.0795C29.5647 79.6854 29.7326 80.1526 30.5064 80.9483C31.5503 82.0214 31.8496 82.7368 31.4481 83.839C31.0101 85.0289 29.9443 85.5545 28.6012 85.0654C26.9295 84.4449 26.9368 83.1675 27.2726 82.1966L28.572 82.6784C28.4552 83.1164 28.3384 83.7807 29.0099 84.0288C29.5355 84.2259 29.8932 83.9704 30.083 83.4668C30.2801 82.9339 30.1341 82.5981 29.4187 81.8681C28.3165 80.7585 27.9369 79.9409 28.3968 78.6999C28.8274 77.532 29.9078 76.8385 31.47 77.4225C33.1782 78.0502 33.2877 79.335 32.93 80.4665L31.6087 79.9774H31.6014Z" fill="white"/>
<path d="M12.7968 69.0862C14.9138 67.1225 16.3737 66.8451 17.6074 68.181C18.7681 69.4293 18.4177 70.8819 16.2715 72.8675C14.1765 74.8093 12.68 74.8823 11.5704 73.6851C10.4024 72.4222 10.7747 70.9549 12.7895 69.0862H12.7968ZM15.286 71.8163C16.6584 70.5388 17.2862 69.5753 16.7241 68.9694C16.1328 68.327 15.2057 68.8453 13.7677 70.1811C12.4245 71.4294 11.8989 72.2762 12.4829 72.904C13.0596 73.5245 13.994 73.0208 15.286 71.8236V71.8163Z" fill="white"/>
<path d="M7.02959 67.6334L11.6577 64.7865C12.2052 64.4507 12.7819 63.9105 12.322 63.1659C11.884 62.4505 11.2343 62.633 10.5919 63.0345L5.9565 65.8888L5.21191 64.6843L9.86924 61.8227C11.081 61.0781 12.3512 60.9468 13.3513 62.5746C14.3368 64.1733 13.7017 65.2099 12.4315 65.991L7.77417 68.8525L7.02959 67.6407V67.6334Z" fill="white"/>
<path d="M7.3144 58.3553L10.4679 57.1727L10.9643 58.494L3.56226 61.268L2.71547 59.005C2.21178 57.6618 2.62788 56.6325 3.94915 56.1362C5.02224 55.7347 5.69383 56.1362 5.99312 56.4646C6.04422 55.7931 6.43112 55.3405 7.5261 54.9244L7.81809 54.8149C8.65758 54.501 8.95687 54.3404 9.32917 54.136L9.81096 55.4208C9.51166 55.6544 8.93497 55.8953 8.29258 56.1362L8.02249 56.2384C7.02971 56.6106 6.78151 56.961 7.0954 57.8005L7.3071 58.3699L7.3144 58.3553ZM6.24132 58.7641L6.00772 58.1436C5.70843 57.3406 5.24853 57.1581 4.49665 57.4428C3.86156 57.6837 3.60606 58.1217 3.86156 58.8006L4.14625 59.5525L6.24862 58.7641H6.24132Z" fill="white"/>
<path d="M3.8323 44.1862C6.71575 43.9818 8.02973 44.6753 8.15383 46.4929C8.27793 48.1938 7.09535 49.1063 4.18269 49.318C1.33574 49.5224 0.123961 48.6391 0.0071624 47.0185C-0.116936 45.3031 1.09484 44.3906 3.8323 44.1935V44.1862ZM4.0659 47.8653C5.93467 47.7339 7.02965 47.3689 6.97125 46.544C6.90555 45.6754 5.86167 45.5002 3.9126 45.6389C2.08033 45.7703 1.14594 46.1061 1.20434 46.9601C1.26274 47.8069 2.30663 47.9967 4.0659 47.8726V47.8653Z" fill="white"/>
<path d="M0.0800781 40.923L0.510771 36.8789L1.74445 37.0103L1.45976 39.6529L3.48182 39.8719L3.75192 37.3826L4.9637 37.514L4.6936 40.0033L8.08805 40.3682L7.93475 41.7698L0.0800781 40.923Z" fill="white"/>
<path d="M1.17529 33.6671L2.27758 29.7544L3.46746 30.0902L2.74477 32.6451L4.70114 33.1999L5.38003 30.791L6.55531 31.1195L5.87642 33.5284L9.16137 34.4555L8.78177 35.806L1.17529 33.6598V33.6671Z" fill="white"/>
<path d="M9.12469 25.0314L8.02971 27.3162L10.1029 28.3017L11.3293 25.7322L12.3512 26.411L10.5993 30.0829L3.46729 26.6738L5.21196 23.0166L6.32884 23.5495L5.18276 25.9439L6.92013 26.776L8.01511 24.4912L9.12469 25.0241V25.0314Z" fill="white"/>
<path d="M11.5045 21.52L14.2347 23.491L13.4098 24.6298L7.00049 20.0089L8.41667 18.0453C9.25615 16.8773 10.3365 16.6583 11.4826 17.4832C12.4097 18.1548 12.4535 18.9359 12.344 19.3665C12.9353 19.038 13.5266 19.1037 14.4683 19.7899L14.7238 19.9724C15.4538 20.498 15.7457 20.6586 16.1253 20.8557L15.3224 21.9653C14.9574 21.8485 14.4391 21.4981 13.8916 21.0966L13.658 20.9287C12.8039 20.3082 12.3732 20.3009 11.8476 21.0236L11.4899 21.5127L11.5045 21.52ZM10.5774 20.8484L10.9643 20.3082C11.4607 19.6147 11.3585 19.1329 10.7161 18.6658C10.1613 18.2716 9.65765 18.3008 9.23425 18.8848L8.76706 19.5344L10.5847 20.8411L10.5774 20.8484Z" fill="white"/>
<path d="M16.7973 16.943C17.301 17.3737 17.8849 17.6073 18.4105 17.1109C18.9142 16.6291 18.8047 16.14 18.3959 15.7093C17.9506 15.2422 17.4543 15.1838 16.4031 15.5268C14.9796 15.994 14.2058 15.9502 13.3955 15.0962C12.5195 14.1764 12.5122 12.9865 13.5488 12.001C14.8409 10.7746 15.987 11.344 16.7097 12.074L15.7023 13.0303C15.3592 12.731 14.8117 12.3295 14.2934 12.8259C13.8846 13.2128 13.9576 13.6508 14.3299 14.0377C14.7241 14.4465 15.0891 14.4684 16.06 14.1399C17.5419 13.6362 18.4397 13.6581 19.3522 14.6217C20.2063 15.5195 20.3596 16.797 19.1478 17.9431C17.8338 19.1987 16.6294 18.7315 15.7753 17.9139L16.7973 16.943Z" fill="white"/>
</g>
<path d="M52.6034 59.0962H33.4616C32.6571 59.0962 32 58.4391 32 57.6345V39.0358C31.9933 32.948 36.948 28 43.0291 28C49.1103 28 54.065 32.948 54.065 39.0358V57.6345C54.065 58.4391 53.4079 59.0962 52.6034 59.0962ZM43.0291 28.7509C37.357 28.7509 32.7442 33.3637 32.7442 39.0358V57.6345C32.7442 58.0301 33.066 58.3452 33.4549 58.3452H52.5967C52.9922 58.3452 53.3074 58.0234 53.3074 57.6345V39.0358C53.3074 33.3637 48.6946 28.7509 43.0224 28.7509H43.0291Z" fill="white"/>
<path d="M52.4966 34.1348L42.1648 32.6263C42.1782 32.4385 42.1849 32.2508 42.1849 32.0631C42.1849 30.7959 41.9234 29.5891 41.4541 28.4895C41.1993 28.523 40.9445 28.57 40.6964 28.6303C41.1725 29.6762 41.434 30.8428 41.434 32.0631C41.434 36.696 37.6592 40.4707 33.0263 40.4707C32.8051 40.4707 32.5905 40.464 32.376 40.4439V41.2015C32.5905 41.2216 32.8051 41.2283 33.0263 41.2283C33.261 41.2283 33.4822 41.2149 33.7102 41.2015L33.918 45.2712L33.9382 45.6199L34.6891 45.5998V45.4321L34.4544 41.1144C35.3327 40.9736 36.1775 40.7121 36.9552 40.3366L40.435 47.0547L40.502 47.1888L41.1792 46.8669L40.9847 46.4982L37.6123 39.988C38.7856 39.3041 39.798 38.3722 40.5623 37.2592L42.2519 38.5331L42.6073 38.8013L43.1034 38.2314L42.4464 37.7352L40.9646 36.6155C41.5278 35.6367 41.9167 34.5438 42.0843 33.3839L52.8721 34.9528L53.0799 34.9796L52.9324 34.2823L52.4899 34.1348H52.4966Z" fill="white"/>
<path d="M49.7469 38.0032L45.1207 37.1316C44.9866 37.1048 44.8458 37.0914 44.705 37.0846L44.0144 36.1125C43.7931 35.7974 43.4043 35.6767 43.0422 35.7907C42.6735 35.9113 42.4388 36.2332 42.4388 36.622L42.4522 37.7283V38.1976C42.3785 38.3049 42.3114 38.4122 42.2578 38.5261C42.0902 38.8413 41.9896 39.1765 41.9695 39.5251L41.5873 44.6073C41.527 45.3582 41.3392 46.0018 40.9973 46.4846C40.8431 46.7058 40.6621 46.8935 40.4408 47.0478C40.0922 47.2958 39.6631 47.4567 39.1468 47.5037C39.0261 47.5171 38.8987 47.5238 38.7646 47.5238V48.2747C39.348 48.2747 39.8642 48.1741 40.3067 47.9797C41.527 47.4567 42.2242 46.2566 42.3449 44.6542L42.7338 39.5788C42.7606 39.21 42.9014 38.8547 43.1428 38.5463L43.2232 38.4457L43.2098 36.6153C43.2098 36.5416 43.2568 36.508 43.2903 36.5013C43.3238 36.4879 43.3842 36.4879 43.4244 36.5483L44.3429 37.8423H44.5441C44.705 37.8289 44.8525 37.8423 44.9933 37.8624L49.6195 38.734C50.3838 38.8815 50.9336 39.5453 50.9336 40.323C50.9336 40.6113 50.6989 40.8527 50.4106 40.8527H48.3724L48.2651 40.9599C47.8964 41.3287 47.4002 41.5365 46.8773 41.5432H45.7509V46.4041H46.5018V42.3009H46.8773C47.5477 42.2942 48.178 42.0461 48.6808 41.6036H50.4106C51.1146 41.6036 51.6845 41.027 51.6845 40.323C51.6845 39.1832 50.8732 38.2043 49.7536 37.9965L49.7469 38.0032Z" fill="white"/>
<path d="M39.1405 47.5104C37.9672 47.0545 36.7335 46.4913 35.5267 45.8008C35.4395 45.7471 35.3524 45.7069 35.2652 45.66C35.2384 45.6466 35.2116 45.6331 35.1914 45.6264C35.1177 45.5929 35.0439 45.5594 34.9635 45.5259C34.93 45.5125 34.8964 45.499 34.8629 45.4923C34.8026 45.4722 34.7489 45.4521 34.6953 45.432H34.6819C34.6417 45.4186 34.6081 45.4119 34.5679 45.3985C34.5277 45.3851 34.4942 45.3784 34.4539 45.3717C34.3601 45.3515 34.2729 45.3314 34.1857 45.318C34.1656 45.318 34.1388 45.3113 34.1254 45.3046C34.0651 45.2912 34.0047 45.2845 33.9444 45.2778C33.9444 45.2778 33.9243 45.2778 33.9176 45.2778C33.7701 45.2644 33.6226 45.251 33.475 45.251C33.1063 45.251 32.7375 45.2979 32.3755 45.3918V46.1695C32.7442 46.0689 33.113 46.0086 33.475 46.0086C33.6024 46.0086 33.7365 46.0153 33.8639 46.0287C33.9109 46.0354 33.9578 46.0421 34.0114 46.0488H34.0382L34.0584 46.0555C34.1321 46.0689 34.2059 46.0824 34.2796 46.1025H34.293C34.293 46.1025 34.3467 46.1159 34.3668 46.1226C34.4003 46.136 34.4405 46.1427 34.474 46.1561C34.521 46.1695 34.5679 46.1896 34.6148 46.203L34.635 46.2164C34.635 46.2164 34.6685 46.2299 34.6953 46.2366C34.7556 46.2634 34.816 46.2902 34.883 46.317C34.9031 46.3237 34.93 46.3371 34.9434 46.3438C35.0305 46.3841 35.0976 46.4176 35.1646 46.4578C36.2508 47.0813 37.4241 47.6378 38.6644 48.134C38.5706 48.1943 38.4767 48.2547 38.3828 48.315L38.0945 48.5027C37.9001 48.6234 37.7057 48.7508 37.5112 48.8782L37.4174 48.9385L37.2498 49.0458C36.9749 49.2201 36.7 49.4012 36.4184 49.5889L36.2172 49.723L36.11 49.79C35.9222 49.9174 35.7345 50.0381 35.5401 50.1722C35.3993 50.2661 35.2518 50.3599 35.111 50.4605L34.635 50.7756L34.1455 51.1041C33.5756 51.4796 32.9923 51.8819 32.3822 52.2842V53.196C32.4626 53.1356 32.5498 53.082 32.637 53.0284C33.3007 52.5792 33.9377 52.1501 34.5612 51.7277C34.7288 51.6204 34.8897 51.5064 35.0506 51.3991C35.2116 51.2919 35.3658 51.1913 35.5267 51.084C35.6675 50.9835 35.815 50.8896 35.9558 50.7957C36.1502 50.6683 36.3379 50.5409 36.5257 50.4203C36.6262 50.3532 36.7335 50.2795 36.8341 50.2124C37.1157 50.0314 37.3839 49.8504 37.6587 49.676C37.7459 49.6157 37.8264 49.5621 37.9202 49.5017C38.1147 49.381 38.3091 49.2537 38.5035 49.1263C38.5974 49.0659 38.698 49.0056 38.7918 48.9452C38.9796 48.8246 39.1606 48.7106 39.3416 48.5899C39.4288 48.5363 39.5092 48.4826 39.5964 48.429C39.8378 48.2815 40.0724 48.134 40.3071 47.9865C40.3272 47.9731 40.3473 47.9597 40.3674 47.953C39.9718 47.8189 39.5696 47.6714 39.1539 47.5104H39.1405Z" fill="white"/>
<path d="M53.3007 44.9023C52.7241 44.7413 52.1274 44.6609 51.5105 44.6609C50.0221 44.6609 48.3795 45.1101 46.4955 45.9549C46.2541 46.0622 45.9993 46.1828 45.7446 46.3035C42.2782 47.9864 38.0007 50.8828 32.3755 54.6642V55.5693C32.4694 55.509 32.5632 55.442 32.6571 55.3816C32.8381 55.2676 33.0124 55.147 33.1867 55.0263C42.0905 49.0323 47.4609 45.4118 51.5105 45.4118C52.067 45.4118 52.5833 45.4789 53.0861 45.6129H53.1063C53.3007 45.6733 53.5018 45.7403 53.6963 45.8208V45.0162C53.5622 44.9693 53.4348 44.9358 53.3074 44.8956L53.3007 44.9023Z" fill="white"/>
<path d="M53.6894 53.9737V55.4018C53.2737 54.8185 52.905 54.1212 52.3016 53.2898C51.1618 51.7209 49.8141 50.494 47.8162 50.494C47.6955 50.494 47.5681 50.5007 47.434 50.5074C46.0461 50.6147 44.4906 51.6405 44.256 53.0887C44.5979 52.968 44.9399 52.9144 45.2617 52.9144C46.663 52.9144 47.729 53.9871 47.2597 55.6432C46.9513 56.7293 46.1668 57.1182 45.2617 57.1182C44.0548 57.1182 42.6335 56.4477 41.8021 55.8577C41.2121 55.4353 40.7159 54.8587 40.0924 54.5101C39.6499 54.262 39.1672 54.0944 38.6777 54.0944C38.3291 54.0944 37.9804 54.1815 37.6586 54.3894C37.6385 54.4766 37.6854 54.4833 37.7391 54.5235C38.2285 54.9057 38.671 55.2007 38.7515 55.8979C38.9124 57.2523 37.8329 57.8356 36.6999 57.8356C36.4585 57.8356 36.2171 57.8088 35.9825 57.7618C35.7478 57.7082 33.3542 56.6019 32.3687 56.1125V55.261C32.4424 55.2878 32.5363 55.3347 32.6502 55.3817C33.5688 55.8108 35.5735 56.8433 35.7947 56.8969C36.0428 56.9573 36.3579 57.0109 36.6596 57.0109C37.1021 57.0109 37.5312 56.8969 37.7793 56.5282C38.1145 56.0186 37.7458 55.3549 37.2496 55.1068C36.8071 54.8922 36.0227 54.966 36.6328 54.1883C37.1155 53.5781 37.8665 53.2965 38.6174 53.2965C38.8118 53.2965 39.0062 53.3166 39.194 53.3502C40.6757 53.6385 41.3395 54.6978 42.5128 55.4286C43.1296 55.8175 44.2158 56.3337 45.1075 56.3337C45.731 56.3337 46.254 56.0857 46.4685 55.3683C46.797 54.2754 46.14 53.6653 45.2416 53.6653C45.0203 53.6653 44.7857 53.6988 44.5443 53.7793C44.323 53.853 44.0213 54.0475 43.8001 54.0475C43.6392 54.0475 43.5185 53.9469 43.485 53.6385C43.2905 51.493 45.4628 49.8235 47.4273 49.6894C47.5681 49.676 47.6955 49.676 47.8296 49.676C50.4041 49.676 52.0334 51.4528 53.381 53.491C53.4883 53.6519 53.5889 53.8128 53.6827 53.9603L53.6894 53.9737Z" fill="white"/>
<defs>
<clipPath id="clip0_487_5175">
<rect width="87" height="87.6862" fill="white"/>
</clipPath>
</defs>
</svg>