<svg xmlns="http://www.w3.org/2000/svg" xmlns:xlink="http://www.w3.org/1999/xlink" width="341" height="341" viewBox="0 0 341 341" >
 <style>
 
@keyframes rotating {
  from {
    
    -ms-transform: rotate(0deg) translate(-1138.5px, -585.5px);
    -moz-transform: rotate(0deg) translate(-1138.5px, -585.5px);
    -webkit-transform: rotate(0deg) translate(-1138.5px, -585.5px);
    -o-transform: rotate(0deg) translate(-1138.5px, -585.5px);
    transform: rotate(0deg) translate(-1138.5px, -585.5px);
     transform-origin: 50% 47%;
  }
  to {
     
    -ms-transform: rotate(360deg) translate(-1138.5px, -585.5px);
    -moz-transform: rotate(360deg) translate(-1138.5px, -585.5px);
    -webkit-transform: rotate(360deg) translate(-1138.5px, -585.5px);
    -o-transform: rotate(360deg) translate(-1138.5px, -585.5px);
    transform: rotate(360deg) translate(-1138.5px, -585.5px);
    transform-origin: 50% 47%;
  }
}

@-webkit-keyframes rotating {
  from {
  
    -webkit-transform: rotate(0deg) translate(-1138.5px, -585.5px);
    -o-transform: rotate(0deg) translate(-1138.5px, -585.5px);
    transform: rotate(0deg) translate(-1138.5px, -585.5px);
   transform-origin: 50% 47%;
  }
  to {
    -webkit-transform: rotate(360deg)  translate(-1138.5px, -585.5px);
    -o-transform: rotate(360deg)  translate(-1138.5px, -585.5px);
    transform: rotate(360deg)  translate(-1138.5px, -585.5px);
 transform-origin: 50% 47%;
  }
}

.rotating {
  -webkit-animation: rotating 15s linear infinite;
  -moz-animation: rotating 15s linear infinite;
  -ms-animation: rotating 15s linear infinite;
  -o-animation: rotating 15s linear infinite;
  animation: rotating 15s linear infinite;
}

</style>
 
  <defs xmlns="http://www.w3.org/2000/svg">
    <filter id="blur-filter">
      <feGaussianBlur stdDeviation="2"/>
    </filter>
  </defs><defs xmlns="http://www.w3.org/2000/svg">
    <filter id="Ellipse_6" x="0" y="0" width="341" height="341" filterUnits="userSpaceOnUse">
      <feOffset dy="10" input="SourceAlpha"/>
      <feGaussianBlur stdDeviation="12.5" result="blur"/>
      <feFlood flood-opacity="0.42"/>
      <feComposite operator="in" in2="blur"/>
      <feComposite in="SourceGraphic"/>
    </filter>
  </defs>
  <g xmlns="http://www.w3.org/2000/svg" id="Groupe_5927" data-name="Groupe 5927" transform="translate(-1138.5 -585.5)" class="rotating" >
    <g transform="matrix(1, 0, 0, 1, 1138.5, 585.5)" filter="url(#blur-filter)" style="isolation: isolate;fill-opacity: 0.2;">
      <circle id="Ellipse_6-2" data-name="Ellipse 6" cx="133" cy="133" r="133" transform="translate(37.5 27.5)" fill="#fff"/>
    </g>
    <path id="Tracé_16" data-name="Tracé 16" d="M922.508,746.163q-3.533,2.137-6.156,1.326t-4.945-4.651l-1.525-2.521,5.1-3.084,1.949,3.219a3.54,3.54,0,0,0,1.117,1.24,1.147,1.147,0,0,0,1.251-.071,1.263,1.263,0,0,0,.727-1,2.968,2.968,0,0,0-.545-1.509,8.468,8.468,0,0,0-1.436-1.844,5.174,5.174,0,0,0-1.736-1.029,19.637,19.637,0,0,0-2.627-.724l-3.644-.8a8.761,8.761,0,0,1-5.981-4.024,8.592,8.592,0,0,1-1.512-5.951,6.547,6.547,0,0,1,3.385-4.412q3.547-2.146,6.176-1.158t4.962,4.843l-5.244,3.174-1.074-1.77a1.281,1.281,0,0,0-.794-.642,1.541,1.541,0,0,0-1.684,1.089,1.571,1.571,0,0,0,.252,1.061,3.255,3.255,0,0,0,1,.994,6.011,6.011,0,0,0,2.036.75l4.7,1.056a19.969,19.969,0,0,1,2.726.8A9.138,9.138,0,0,1,921.518,732a10.613,10.613,0,0,1,2.3,2.781,12.1,12.1,0,0,1,2.1,6.5Q925.831,744.152,922.508,746.163Z" transform="translate(337.979 -81.303)" fill="#fff"/>
    <path id="Tracé_17" data-name="Tracé 17" d="M929.513,743.053,923.1,719.569l-3.452.942-1.527-5.585,12.718-3.472,1.527,5.581-3.454.945,6.419,23.486Z" transform="translate(351.53 -87.711)" fill="#fff"/>
    <path id="Tracé_18" data-name="Tracé 18" d="M936.032,740.112l.356-30.134,9.244.106a5.09,5.09,0,0,1,3.482,1.1,5.271,5.271,0,0,1,1.548,2.961,21.445,21.445,0,0,1,.349,4.449,10.148,10.148,0,0,1-.67,3.929,3.6,3.6,0,0,1-2.378,2.01,2.7,2.7,0,0,1,1.977,1.436,6.37,6.37,0,0,1,.539,2.909l-.134,11.4-5.941-.071.142-11.8c.009-.876-.162-1.425-.522-1.641a3.573,3.573,0,0,0-1.734-.336l-.16,13.748Zm6.352-18.9,1.456.019q1.25.014,1.281-2.708a6.15,6.15,0,0,0-.246-2.316,1.041,1.041,0,0,0-1.02-.559l-1.4-.015Z" transform="translate(367.023 -88.987)" fill="#fff"/>
    <path id="Tracé_19" data-name="Tracé 19" d="M956.889,742.476a6.955,6.955,0,0,1-4.608-3.741q-1.167-2.655.073-6.592l4.3-13.654a8.266,8.266,0,0,1,3.569-5.035,8.659,8.659,0,0,1,10.566,3.329,8.247,8.247,0,0,1,.041,6.171l-4.3,13.652q-1.239,3.939-3.715,5.447A6.96,6.96,0,0,1,956.889,742.476Zm1.718-5.277q1.309.414,2.1-2.12l4.418-14.029c.444-1.414.242-2.258-.606-2.525-.957-.3-1.667.274-2.122,1.721l-4.41,14.014a4.315,4.315,0,0,0-.276,2.021A1.187,1.187,0,0,0,958.607,737.2Z" transform="translate(380.587 -86.619)" fill="#fff"/>
    <path id="Tracé_20" data-name="Tracé 20" d="M964.833,744.4l17.132-24.793,5.1,3.523-5.923,13.453,8.207-11.875,4.789,3.308L977,752.814l-4.845-3.349,6.083-14.108-8.563,12.394Z" transform="translate(391.931 -80.656)" fill="#fff"/>
    <path id="Tracé_21" data-name="Tracé 21" d="M979.335,755.089q-4.006-5.063,3.245-10.8l10.191-8.063q6.621-5.239,11.211.563a7.683,7.683,0,0,1,1.941,4.425,6.291,6.291,0,0,1-1.41,3.974,22.783,22.783,0,0,1-4.1,4.032l-3.655-4.619,2.094-1.656a4.413,4.413,0,0,0,1.117-1.221,1.069,1.069,0,0,0-.168-1.277,1.368,1.368,0,0,0-1.4-.645,3.558,3.558,0,0,0-1.417.694l-11.454,9.063a5.079,5.079,0,0,0-1.354,1.479,1.216,1.216,0,0,0,.172,1.445,1.244,1.244,0,0,0,1.389.524,5.277,5.277,0,0,0,1.775-1l3.37-2.667-1-1.263,4.084-3.232,4.567,5.774-13.762,10.893-1.5-1.893,1.35-2.378A5.29,5.29,0,0,1,979.335,755.089Z" transform="translate(403.24 -68.437)" fill="#fff"/>
    <path id="Tracé_22" data-name="Tracé 22" d="M985.141,760.214l27.918-11.349,4.541,11.169-5.4,2.191-2.23-5.486-5.44,2.212,2.139,5.268-5.25,2.133-2.141-5.268-6.393,2.6,2.378,5.852-5.44,2.214Z" transform="translate(409.494 -55.356)" fill="#fff"/>
    <path id="Tracé_23" data-name="Tracé 23" d="M989.392,769.407l29.974-3.124.958,9.2a5.116,5.116,0,0,1-.686,3.584,5.288,5.288,0,0,1-2.766,1.881,21.625,21.625,0,0,1-4.379.86,10.242,10.242,0,0,1-3.98-.214,3.613,3.613,0,0,1-2.271-2.13,2.7,2.7,0,0,1-1.2,2.13,6.335,6.335,0,0,1-2.827.871l-11.342,1.182-.617-5.91,11.733-1.223c.876-.09,1.4-.325,1.574-.7a3.63,3.63,0,0,0,.132-1.764l-13.675,1.425Zm19.5,4.132.151,1.445q.132,1.248,2.837.962a6.185,6.185,0,0,0,2.273-.511,1.045,1.045,0,0,0,.436-1.08l-.146-1.4Z" transform="translate(413.17 -40.292)" fill="#fff"/>
    <path id="Tracé_24" data-name="Tracé 24" d="M990.179,782.707l5.05.731-.878,6.066-5.052-.733Z" transform="translate(413.09 -26.088)" fill="#fff"/>
    <path id="Tracé_25" data-name="Tracé 25" d="M989.378,793.018l27.842,11.534-3.127,7.545q-1.259,3.04-3.312,3.808t-5.453-.638l-1.218-.5a6.842,6.842,0,0,1-2.887-2.022,3.615,3.615,0,0,1-.71-2.807,3.684,3.684,0,0,1-3.267,1.6,13.447,13.447,0,0,1-4.53-1.123,21.378,21.378,0,0,1-4.522-2.467,6.314,6.314,0,0,1-2.385-3.137,6.167,6.167,0,0,1,.442-4.248Zm2.418,8.026q-.895,2.17,1.158,3.019l3.482,1.441a4.406,4.406,0,0,0,2.021.42,1.472,1.472,0,0,0,1.242-1.05l.427-1.029-8.069-3.342C991.943,800.727,991.855,800.908,991.8,801.044Zm12.679,4.6-.47,1.139a1.017,1.017,0,0,0,.185,1.244,4.549,4.549,0,0,0,1.35.819l2.8,1.162q1.343.557,1.835-.63l.487-1.171Z" transform="translate(409.893 -17.171)" fill="#fff"/>
    <path id="Tracé_26" data-name="Tracé 26" d="M984.482,806.357l23.493,18.876-7.552,9.4-4.537-3.648,3.711-4.619-4.578-3.679-3.56,4.432-4.42-3.55,3.56-4.431-5.378-4.321-3.957,4.923-4.578-3.677Z" transform="translate(402.181 -5.635)" fill="#fff"/>
    <path id="Tracé_27" data-name="Tracé 27" d="M972.641,817.214l14.318,19.693,2.894-2.1,3.405,4.681-10.665,7.754-3.4-4.681,2.894-2.105-14.32-19.693Z" transform="translate(394.466 3.755)" fill="#fff"/>
    <path id="Tracé_28" data-name="Tracé 28" d="M961.4,823.977l8.644,22.764,3.345-1.272,2.055,5.408-12.328,4.681-2.053-5.408,3.346-1.272-8.644-22.764Z" transform="translate(384.085 9.603)" fill="#fff"/>
    <path id="Tracé_29" data-name="Tracé 29" d="M952.963,827.322l2.851,30-12,1.14-.55-5.794,5.9-.561-.554-5.844-5.66.537-.535-5.645,5.66-.537-.656-6.868-6.288.6-.558-5.85Z" transform="translate(370.947 12.496)" fill="#fff"/>
    <path id="Tracé_30" data-name="Tracé 30" d="M942.3,828.891l-5.546,29.623-9.089-1.7a5.122,5.122,0,0,1-3.241-1.678,5.31,5.31,0,0,1-1.014-3.189,21.685,21.685,0,0,1,.423-4.44,10.211,10.211,0,0,1,1.339-3.754,3.609,3.609,0,0,1,2.689-1.57,2.7,2.7,0,0,1-1.7-1.755,6.34,6.34,0,0,1-.033-2.958l2.1-11.211,5.839,1.095-2.171,11.6c-.162.862-.086,1.432.229,1.706a3.6,3.6,0,0,0,1.65.629l2.53-13.515Zm-9.516,17.518-1.432-.267q-1.228-.229-1.73,2.447a6.165,6.165,0,0,0-.155,2.322,1.039,1.039,0,0,0,.91.727l1.38.259Z" transform="translate(356.099 11.574)" fill="#fff"/>
    <path id="Tracé_31" data-name="Tracé 31" d="M922.878,825.028l-2.145,4.63-5.563-2.575,2.145-4.63Z" transform="translate(348.981 8.285)" fill="#fff"/>
    <path id="Tracé_32" data-name="Tracé 32" d="M923.083,820.5l-18.749,23.592-9.438-7.5,3.653-4.6,4.694,3.728,2.982-3.754-4.451-3.536,3.612-4.545,4.451,3.534,8.5-10.7Z" transform="translate(331.447 3.33)" fill="#fff"/>
    <path id="Tracé_33" data-name="Tracé 33" d="M915.334,816.167,889.172,831.41l-5.971-8.3,22.788-19.926,3.331,4.629-3.7,3.187,2.118,2.946,4.17-2.534Zm-11.745.248-1.6-2.225-11.664,10.024.158.222Z" transform="translate(321.333 -8.376)" fill="#fff"/>
    <path id="Tracé_34" data-name="Tracé 34" d="M904.829,795.419q1.34,3.905-.013,6.3t-5.595,3.849l-2.786.955-1.932-5.635,3.562-1.221a3.493,3.493,0,0,0,1.445-.832,1.143,1.143,0,0,0,.2-1.236,1.272,1.272,0,0,0-.822-.923,2.977,2.977,0,0,0-1.594.213,8.476,8.476,0,0,0-2.107,1.013,5.219,5.219,0,0,0-1.373,1.479,19.769,19.769,0,0,0-1.264,2.413l-1.552,3.4a8.755,8.755,0,0,1-5.2,4.985,8.579,8.579,0,0,1-6.137.218,6.565,6.565,0,0,1-3.591-4.246q-1.346-3.916.179-6.279t5.786-3.821l1.99,5.8-1.96.671a1.29,1.29,0,0,0-.794.645,1.537,1.537,0,0,0,.707,1.874,1.59,1.59,0,0,0,1.089-.02,3.238,3.238,0,0,0,1.184-.768,6.052,6.052,0,0,0,1.165-1.829l2.029-4.371a20.357,20.357,0,0,1,1.361-2.5,9.1,9.1,0,0,1,1.975-2.161,10.486,10.486,0,0,1,3.206-1.661,12.092,12.092,0,0,1,6.8-.677Q903.564,791.746,904.829,795.419Z" transform="translate(314.618 -19.083)" fill="#fff"/>
    <path id="Tracé_35" data-name="Tracé 35" d="M902.744,785.263l-24.312,1.32.192,3.575-5.777.313-.716-13.166,5.779-.315.194,3.575,24.312-1.324Z" transform="translate(311.76 -31.033)" fill="#fff"/>
    <path id="Tracé_36" data-name="Tracé 36" d="M902.528,777.769l-29.463-6.343,2.536-11.784,5.693,1.225-1.246,5.788,5.74,1.238,1.2-5.557,5.542,1.192-1.2,5.557,6.749,1.453,1.324-6.176,5.745,1.234Z" transform="translate(312.568 -46.035)" fill="#fff"/>
    <path id="Tracé_37" data-name="Tracé 37" d="M904.969,767.945l-26.537-14.279,4.38-8.144a5.112,5.112,0,0,1,2.581-2.579,5.3,5.3,0,0,1,3.345,0,21.8,21.8,0,0,1,4.1,1.755,10.177,10.177,0,0,1,3.17,2.417,3.6,3.6,0,0,1,.682,3.038,2.69,2.69,0,0,1,2.186-1.087,6.387,6.387,0,0,1,2.829.867l10.042,5.406-2.816,5.231-10.387-5.589q-1.161-.624-1.7-.3a3.629,3.629,0,0,0-1.1,1.382l12.108,6.516Zm-13.8-14.387.69-1.283q.59-1.1-1.807-2.391a6.093,6.093,0,0,0-2.163-.854,1.042,1.042,0,0,0-.973.645l-.662,1.236Z" transform="translate(317.209 -60.711)" fill="#fff"/>
    <path id="Tracé_38" data-name="Tracé 38" d="M902.391,747.522l-3.75-3.454,4.149-4.511,3.754,3.455Z" transform="translate(334.686 -63.406)" fill="#fff"/>
    <circle id="Ellipse_1" data-name="Ellipse 1" cx="52" cy="52" r="52" transform="translate(1257 694)" fill="#fff" opacity="0.05" filter="url(#blur-filter)"/>
    
  </g><g xmlns="http://www.w3.org/2000/svg" id="Groupe_5927" data-name="Groupe 5927" transform="translate(-1138.5 -585.5)"><path xmlns="http://www.w3.org/2000/svg" id="Polygone_1" data-name="Polygone 1" d="M19.887,0,39.774,34.206H0Z" transform="translate(1330.08 728.102) rotate(90)" fill="#fff"/></g>
</svg>